<svg version="1.1" id="Layer_1" xmlns="http://www.w3.org/2000/svg" xmlns:xlink="http://www.w3.org/1999/xlink" x="0px" y="0px"
	 width="100%" viewBox="0 0 1370 698" enable-background="new 0 0 1370 698" xml:space="preserve">
<path fill="#ffffff" opacity="0.000000" stroke="none"
	d="
M884.000000,699.000000
	C589.368835,699.000000 295.237640,699.000000 1.053232,699.000000
	C1.053232,466.396912 1.053232,233.793793 1.053232,1.095336
	C457.548004,1.095336 914.096008,1.095336 1370.822021,1.095336
	C1370.822021,233.666565 1370.822021,466.333252 1370.822021,699.000000
	C1208.793457,699.000000 1046.646729,699.000000 884.000000,699.000000
M751.959717,645.042419
	C751.959717,645.042419 752.063782,645.041443 752.004883,644.096924
	C752.004883,629.168335 752.004883,614.239685 752.004883,598.608582
	C747.506592,599.100891 743.786499,599.507996 739.671143,599.168823
	C739.302917,591.293335 738.934692,583.417847 738.562134,575.449707
	C729.397461,575.449707 720.366394,575.449707 710.879028,575.449707
	C710.879028,583.445557 710.879028,591.036865 710.879028,599.144165
	C705.349670,599.144165 700.271362,599.144165 695.254272,599.144165
	C695.055664,601.733765 694.898010,603.789062 694.768555,605.476868
	C691.297607,605.280396 688.381714,605.115417 685.158203,604.932983
	C685.410217,608.082947 685.999695,611.404541 680.786011,609.351135
	C680.786011,596.156555 680.786011,582.738953 680.786011,569.088867
	C677.770752,569.088867 675.296204,569.088867 674.099731,569.088867
	C671.955200,567.249084 670.750183,565.327148 669.389893,565.210144
	C664.792175,564.814697 660.139465,565.059448 656.364197,565.059448
	C652.397827,572.328552 645.528137,566.806885 641.525146,569.693604
	C641.525146,583.415649 641.525146,596.954468 641.525146,610.781311
	C640.203430,610.930908 638.792786,611.090576 636.856567,611.309692
	C636.856567,618.002197 636.856567,624.411316 636.856567,631.175415
	C632.591064,631.175415 628.904236,631.175415 624.730347,631.175415
	C624.730347,601.192017 624.730347,571.273743 624.730347,540.920105
	C617.586914,541.350037 610.948059,541.749573 603.975403,542.169250
	C603.975403,539.978210 603.975952,538.664612 603.975342,537.350952
	C603.969666,525.185120 603.979065,513.019165 603.947754,500.853424
	C603.939209,497.533691 603.883057,497.533844 600.635010,497.657135
	C600.635010,512.368652 600.635010,527.087646 600.635010,542.302795
	C592.311035,541.854553 584.423950,541.429749 576.762207,541.017151
	C576.762207,543.171021 576.762207,544.910095 576.762207,547.244019
	C572.773315,547.244019 569.039185,547.244019 564.882568,547.244019
	C564.882568,565.761780 564.882568,583.687439 564.882568,602.056152
	C560.975708,602.056152 557.512451,602.029785 554.049927,602.068420
	C552.560425,602.085022 549.883423,601.925964 549.766235,602.374451
	C548.492188,607.252441 544.782654,604.537354 542.196716,604.951904
	C540.315186,605.253601 538.346375,605.010986 535.799500,605.010986
	C535.799500,620.425232 535.799500,635.142822 535.799500,649.727417
	C530.899597,649.727417 526.634277,649.727417 521.782227,649.727417
	C521.782227,603.694092 521.782227,557.977783 521.782227,512.297424
	C518.629089,512.055359 516.081665,511.859772 513.490356,511.660828
	C513.490356,507.168976 513.490356,503.401978 513.490356,499.473816
	C500.906158,499.473816 488.073334,499.473816 474.813477,499.473816
	C474.813477,503.840210 474.813477,507.773865 474.813477,511.845337
	C471.787933,511.995880 469.184631,512.125427 465.995819,512.284119
	C465.995819,544.920471 465.995819,577.309753 465.995819,610.254395
	C461.368378,609.841064 457.393433,609.486023 453.437225,609.132629
	C452.906189,619.961792 452.398407,630.316772 451.890869,640.666504
	C446.670715,640.666504 441.952393,640.666504 437.460571,640.666504
	C437.460571,616.258118 437.460571,592.238708 437.460571,569.998047
	C434.900909,567.564270 432.924377,566.361633 431.931183,564.603516
	C429.678864,560.616516 427.742706,556.426147 425.978455,552.193176
	C421.353607,541.096802 421.417725,541.070374 409.518829,541.067383
	C407.685608,541.066895 405.728363,540.661255 404.055786,541.178345
	C402.530701,541.649780 400.675171,542.836426 400.071289,544.198242
	C397.292999,550.463806 394.885040,556.894409 392.377411,563.278870
	C390.429230,568.239075 387.663635,572.542114 387.808990,578.603027
	C388.404114,603.420532 388.060913,628.260498 388.063080,653.092224
	C388.063232,655.005615 388.063110,656.919006 388.063110,659.079773
	C385.614197,658.968994 384.006317,658.896240 382.200623,658.814575
	C382.005615,656.107300 381.832672,653.705994 381.656128,651.254822
	C378.948242,651.090027 376.679108,650.951965 374.312073,650.807922
	C373.795685,631.479065 373.287811,612.468628 372.780701,593.486450
	C371.903839,593.290344 371.439606,593.122620 370.966156,593.090515
	C365.538574,592.721191 360.075653,592.626282 354.695862,591.906921
	C352.158600,591.567749 349.828552,589.890991 347.320374,589.081116
	C340.640686,586.924377 335.567719,592.998291 328.968719,592.357422
	C329.133911,594.167236 329.261353,595.563843 329.453369,597.667786
	C326.131409,597.888062 322.780701,598.110229 318.873383,598.369324
	C318.873383,607.727844 318.873383,616.788208 318.873383,625.760620
	C316.655304,625.994019 315.043793,626.163635 313.267212,626.350586
	C313.081635,628.990967 312.913208,631.387756 312.725647,634.056458
	C309.967987,634.056458 307.615295,633.785706 305.347107,634.108521
	C299.261200,634.974915 293.189453,635.988770 287.172119,637.234253
	C286.312622,637.412231 285.392853,639.124084 285.177338,640.254944
	C284.450745,644.067261 284.029205,647.937622 283.491852,651.779907
	C277.996490,651.779907 272.732330,651.779907 266.852173,651.779907
	C266.852173,638.467285 266.852173,625.413818 266.852173,612.427612
	C262.957062,612.098877 258.227295,613.031799 256.755463,611.259338
	C254.616669,608.683716 252.613174,608.979431 250.449860,609.124023
	C241.385971,609.730408 232.339920,610.603027 223.533508,611.357117
	C223.533508,623.809875 223.533508,634.805420 223.533508,645.765869
	C219.608322,645.765869 215.997437,645.765869 212.376648,645.765869
	C211.746460,641.825806 211.157715,638.144775 210.476028,633.882690
	C203.340164,633.882690 196.276413,633.882690 189.143021,633.882690
	C188.598831,621.601746 188.081711,609.931519 187.583542,598.689148
	C181.938065,596.319031 176.571136,598.715515 170.561081,595.526184
	C164.474426,592.296265 155.337845,594.813721 147.798706,594.813721
	C147.798706,597.253662 147.798706,599.869202 147.798706,602.767151
	C146.276688,602.972290 144.872498,603.161499 143.678757,603.322327
	C143.678757,614.303589 143.678757,624.999146 143.678757,636.147095
	C136.040817,636.147095 128.770828,636.147095 121.454376,636.147095
	C121.147072,638.324585 120.901634,640.063782 120.649994,641.846863
	C118.106796,642.007629 115.846504,642.150574 113.822647,642.278564
	C113.822647,646.614441 113.822647,650.558167 113.822647,652.581604
	C107.036186,660.166626 112.137413,668.278381 109.361122,674.713867
	C104.993599,675.084106 100.651779,675.452087 96.425735,675.810303
	C96.425735,681.157288 96.425735,686.404358 96.425735,691.667480
	C499.688599,691.667480 902.584412,691.667480 1305.713623,691.667480
	C1305.713623,684.792542 1305.713623,678.211975 1305.713623,671.061096
	C1299.446533,671.061096 1293.287598,671.061096 1287.153320,671.061096
	C1286.982544,667.629761 1286.853271,665.029602 1286.694092,661.828674
	C1279.259766,661.828674 1272.205444,661.828674 1264.736816,661.828674
	C1264.736816,655.270081 1264.736816,649.338867 1264.736816,642.810303
	C1260.583496,642.810303 1256.864258,642.810303 1252.736572,642.810303
	C1252.736572,637.934448 1252.736572,633.669006 1252.736572,629.646729
	C1248.355713,627.541016 1242.178467,632.177307 1239.938354,625.206116
	C1239.895752,625.073914 1239.312744,625.081116 1238.981934,625.080872
	C1230.403564,625.074585 1221.825317,625.075806 1213.341431,625.075806
	C1213.097778,627.836975 1212.927368,629.768616 1212.709595,632.237061
	C1208.675537,632.237061 1204.942627,632.237061 1200.864502,632.237061
	C1201.104736,635.751221 1201.304077,638.669800 1201.534546,642.041260
	C1199.540283,642.041260 1197.402100,642.061218 1195.264282,642.036682
	C1192.004517,641.999207 1188.075684,643.066345 1186.669678,638.852112
	C1185.658325,635.820374 1183.659302,636.023376 1181.362671,636.030090
	C1172.409424,636.056396 1163.456299,636.040771 1153.920410,636.040771
	C1153.920410,630.481628 1153.920410,625.411499 1153.920410,620.224182
	C1150.948242,620.022583 1148.553833,619.860168 1145.961060,619.684326
	C1145.961060,614.703491 1145.688721,610.193970 1146.038696,605.733276
	C1146.379150,601.395081 1147.357056,597.106934 1148.105713,592.483398
	C1144.950195,592.332825 1144.601929,589.526245 1143.843384,586.333862
	C1141.207397,575.239441 1136.224487,565.150208 1126.090942,559.265015
	C1118.782593,555.020508 1116.283813,549.073792 1115.994751,541.403687
	C1115.935425,539.827637 1116.162109,538.240784 1116.252441,536.734924
	C1110.171997,534.784851 1109.037476,535.594666 1108.998413,541.637573
	C1108.993042,542.470825 1109.113770,543.324402 1108.975098,544.134155
	C1108.022949,549.694092 1107.496216,555.024231 1101.485840,558.474915
	C1092.643799,563.551392 1087.197144,571.786194 1084.278198,581.563660
	C1083.206543,585.153748 1082.407349,588.825134 1081.484619,592.456177
	C1080.870850,592.342102 1080.084229,592.153259 1079.286743,592.071167
	C1079.011230,592.042847 1078.708374,592.280334 1079.355469,592.021606
	C1080.125732,601.790588 1080.872803,611.265747 1081.617676,620.712280
	C1078.274780,621.017151 1076.336792,621.193970 1074.237305,621.385437
	C1074.111694,623.959961 1074.000610,626.235962 1073.877686,628.753906
	C1072.204468,628.753906 1070.815063,628.753906 1068.950195,628.753906
	C1068.950195,627.064941 1069.280151,625.492615 1068.851196,624.165527
	C1068.473145,622.996033 1067.271729,621.242798 1066.392212,621.217896
	C1058.341675,620.990356 1050.282104,621.084106 1042.614868,621.084106
	C1042.614868,626.828308 1042.614868,631.833618 1042.614868,636.744995
	C1038.595825,636.744995 1034.993530,636.744995 1030.790283,636.744995
	C1030.790283,630.057861 1030.790283,623.659302 1030.790283,617.254333
	C1027.575073,617.083557 1024.969849,616.945129 1021.779297,616.775635
	C1021.779297,611.394836 1021.779297,606.339417 1021.779297,601.377930
	C1012.909058,601.377930 1004.662170,601.377930 995.978027,601.377930
	C995.978027,606.656555 995.978027,611.591980 995.978027,617.118530
	C991.495728,617.118530 987.431152,617.118530 982.966431,617.118530
	C982.966431,627.320129 982.966431,636.915771 982.966431,646.727417
	C979.147339,646.727417 975.770996,646.727417 971.974182,646.727417
	C971.974182,628.458191 971.974182,610.513245 971.974182,592.508545
	C963.410522,593.836182 962.630981,593.258911 963.037842,586.445190
	C954.132812,586.445190 945.222778,586.445190 935.875732,586.445190
	C935.875732,590.436157 935.875732,594.033875 935.875732,597.660156
	C932.028931,597.660156 928.643860,597.660156 924.821838,597.660156
	C924.821838,593.358582 924.821838,589.425903 924.821838,584.892212
	C920.002686,584.892212 915.616089,584.892212 910.965027,584.892212
	C910.965027,581.789978 911.127380,579.291382 910.916870,576.824646
	C910.727661,574.607483 910.621033,572.161926 909.613464,570.279907
	C907.149658,565.678040 904.186157,561.343750 901.072998,556.337769
	C898.333618,556.337769 894.404785,556.337769 890.281982,556.337769
	C890.183716,557.412659 889.948181,558.237793 890.063660,559.010498
	C890.802734,563.956909 889.531860,567.317444 883.821777,567.666016
	C880.698975,567.856750 879.900879,569.803528 879.957092,572.782715
	C880.026489,576.463989 879.510681,580.156311 879.245117,583.880737
	C877.317017,583.968262 876.331604,584.038269 875.345459,584.053711
	C868.046387,584.168030 868.034607,584.164612 868.031250,591.627991
	C868.021606,612.959900 868.022339,634.291870 868.019165,655.623779
	C868.018921,657.363037 868.019226,659.102295 868.019226,661.288269
	C864.493958,660.925537 861.795532,660.647949 859.354309,660.396790
	C858.815552,653.560059 858.310852,647.156067 857.775696,640.364929
	C852.685303,640.082703 849.205505,638.092163 849.308838,632.256165
	C849.321533,631.538696 847.193176,630.202209 846.009460,630.145630
	C841.021240,629.907104 836.005432,630.220520 831.020447,629.950623
	C829.260498,629.855408 827.559570,628.671570 825.972412,627.125427
	C825.929138,625.097412 825.885864,623.069336 825.953064,620.099304
	C825.968689,616.280457 826.090759,612.458435 825.974548,608.643616
	C825.805603,603.099426 825.464844,597.560547 825.339905,591.239380
	C825.282471,588.157837 825.225037,585.076355 825.836243,581.475281
	C825.891907,574.018555 826.039124,566.560791 825.961731,559.105469
	C825.926758,555.735962 825.445007,552.371033 825.320801,548.258728
	C825.219238,544.221558 825.117676,540.184448 825.662476,535.736877
	C825.151367,534.840332 824.858093,533.608215 824.089050,533.109070
	C821.620178,531.506531 817.923279,530.774658 816.673401,528.582092
	C815.215942,526.025330 813.681824,526.069519 811.624329,526.065369
	C801.833862,526.045654 792.040344,525.931702 782.255676,526.169434
	C780.459656,526.213074 778.699341,527.728699 776.922546,528.564819
	C776.862671,528.696716 776.802856,528.828552 776.742981,528.960388
	C774.821960,530.260803 772.900940,531.561157 770.309509,532.959839
	C769.446533,533.403442 767.882141,533.790527 767.841125,534.300354
	C767.656250,536.594360 767.980591,538.923218 767.983215,541.239563
	C768.005432,560.896851 767.880615,580.555176 768.042297,600.211121
	C768.139038,611.981201 768.693481,623.747131 768.989563,635.516296
	C769.069336,638.689209 768.956604,641.867004 769.041443,645.042542
	C769.041443,645.042542 769.041565,644.933411 768.099121,644.992859
	C762.718933,644.974670 757.338745,644.956482 751.959717,645.042419
M1085.948730,424.949554
	C1085.948730,424.949554 1085.949463,425.075317 1086.896118,425.009705
	C1098.474609,425.009705 1110.053223,425.009705 1121.732544,425.009705
	C1121.732544,418.697235 1121.732544,413.117432 1121.732544,406.935181
	C1109.772095,406.935181 1098.068237,406.935181 1086.189819,406.935181
	C1086.189819,398.878815 1086.189819,391.425018 1087.103271,383.962463
	C1100.239502,383.962463 1113.375732,383.962463 1126.160889,383.962463
	C1126.160889,377.237549 1126.160889,370.908783 1126.160889,364.758362
	C1105.314331,364.758362 1084.813477,364.758362 1064.376953,364.758362
	C1064.376953,398.435120 1064.376953,431.999969 1064.376953,465.536316
	C1085.400146,465.536316 1106.093262,465.536316 1126.711670,465.536316
	C1126.711670,458.822693 1126.711670,452.537170 1126.711670,447.035858
	C1113.033203,447.035858 1099.606812,447.035858 1086.029663,446.100098
	C1086.044556,439.049591 1086.059570,431.999115 1085.948730,424.949554
M366.779938,384.612732
	C376.253082,381.159332 378.885406,373.973053 379.174713,364.453156
	C379.394806,357.211365 380.854034,349.762970 383.166473,342.878235
	C388.513794,326.957794 398.595184,314.053162 410.776001,302.627869
	C428.327423,286.165161 442.482513,267.209961 452.389587,245.153122
	C459.831848,228.583878 464.754089,211.212357 465.687775,193.219452
	C466.446594,178.595718 465.164093,163.793320 463.853180,149.153748
	C462.292786,131.728180 455.948517,115.557320 447.921112,100.193657
	C437.695374,80.622635 423.953552,63.826759 407.058899,49.413635
	C391.668701,36.284027 374.682007,26.333439 355.761780,19.351749
	C341.254242,13.998363 326.311768,10.232138 310.995056,9.290919
	C297.629456,8.469598 284.120331,9.374216 270.706329,10.101698
	C253.006454,11.061622 236.423370,16.533731 220.441833,23.941296
	C200.309708,33.272701 182.630096,45.888660 167.290573,62.062054
	C156.558182,73.377861 147.594528,85.864235 140.339737,99.476547
	C128.326782,122.016693 121.973366,146.386429 121.262283,171.839401
	C120.905975,184.593521 122.079613,197.608810 124.396835,210.167282
	C127.754784,228.366196 133.548965,246.076874 144.083771,261.548950
	C151.995514,273.168640 160.720383,284.293457 169.784180,295.047821
	C175.195969,301.469025 182.295990,306.437225 188.049683,312.606445
	C201.860535,327.414734 209.712250,345.100586 209.839249,365.385071
	C209.911057,376.853973 217.591263,386.162567 230.754242,386.079529
	C273.416168,385.810364 316.080872,385.993530 358.744385,385.927032
	C361.164917,385.923279 363.584381,385.244476 366.779938,384.612732
M602.051636,172.464783
	C602.051636,175.879883 602.051636,179.294998 602.051636,181.972443
	C620.267700,181.972443 637.715210,182.724518 655.068176,181.764893
	C673.097534,180.767883 687.898560,172.813492 698.303772,157.366913
	C707.166016,144.210815 709.276917,129.554413 707.745300,114.423920
	C706.512878,102.249519 701.895935,90.959656 693.270142,81.872803
	C681.067627,69.018028 665.501465,63.741581 648.220154,63.114223
	C637.910583,62.739964 627.576111,63.051533 617.252869,63.053905
	C612.317139,63.055042 607.381348,63.054096 602.669678,63.054096
	C602.344788,63.978985 602.146423,64.280228 602.146057,64.581688
	C602.104309,100.212212 602.077148,135.842758 602.051636,172.464783
M665.029480,229.529175
	C662.709900,232.308289 660.053650,234.873489 658.128479,237.903229
	C649.414185,251.617538 645.703430,266.410767 647.941467,282.785278
	C650.371033,300.561554 657.743835,315.143524 672.827759,325.361084
	C684.157959,333.036011 696.796448,335.525635 710.283020,334.983032
	C727.618896,334.285553 742.372742,327.433594 752.388428,313.653229
	C767.770081,292.489990 769.689392,268.901276 758.400757,245.332672
	C749.931641,227.650742 735.439148,216.853333 715.465088,213.926270
	C696.334473,211.122803 679.803711,216.147964 665.029480,229.529175
M956.860901,288.603729
	C957.318176,287.691650 957.549377,286.503082 958.270325,285.913544
	C962.132996,282.755035 966.740723,280.281464 969.929626,276.572662
	C976.391602,269.057220 977.572876,259.664093 976.930481,250.109726
	C975.490662,228.697433 963.483093,217.806808 943.497681,216.272980
	C928.270081,215.104294 912.879822,216.045502 897.561951,216.084335
	C896.467651,216.087112 895.374207,216.387894 894.291931,216.548386
	C894.291931,255.428406 894.291931,293.989319 894.291931,332.256531
	C902.566650,332.256531 910.600952,332.256531 919.209473,332.256531
	C919.209473,318.271545 919.209473,304.216644 919.209473,289.675903
	C924.259033,290.959930 929.590454,287.631775 932.986511,293.561890
	C940.457764,306.607574 948.205627,319.494904 955.556946,331.965820
	C964.533569,331.965820 973.069885,331.965820 982.561462,331.965820
	C979.872070,327.440338 977.668457,323.704346 975.438110,319.984375
	C969.309937,309.762756 963.170593,299.547821 956.860901,288.603729
M598.686707,448.143433
	C602.216003,451.353333 608.445862,450.703857 610.570435,446.812286
	C615.355286,438.047821 620.131104,429.277344 624.787292,420.444275
	C628.014465,414.322205 631.036011,408.091705 634.773865,400.669708
	C634.773865,423.327789 634.773865,444.486969 634.773865,465.655884
	C641.659302,465.655884 648.581360,465.655884 655.606445,465.655884
	C655.606445,431.650970 655.606445,397.944580 655.606445,364.526855
	C647.254822,364.526855 639.266357,364.526855 630.954895,364.526855
	C622.226318,381.769470 613.436829,399.132446 604.531860,416.723602
	C603.894775,415.575378 603.385681,414.734131 602.947815,413.857300
	C595.609558,399.161011 588.345337,384.427032 580.878174,369.796631
	C579.774597,367.634491 577.841858,364.457825 576.085571,364.315918
	C568.543884,363.706696 560.924805,364.055908 553.327881,364.055908
	C553.327881,398.339752 553.327881,431.908875 553.327881,465.538574
	C560.344971,465.538574 567.047546,465.538574 574.283691,465.538574
	C574.283691,444.306305 574.283691,423.490662 574.283691,402.675018
	C574.580627,402.619446 574.877563,402.563873 575.174500,402.508301
	C582.841553,417.511139 590.508606,432.513947 598.686707,448.143433
M753.782104,86.001312
	C769.384949,86.001312 784.987793,86.001312 800.321899,86.001312
	C800.321899,78.066940 800.321899,70.609009 800.321899,63.363800
	C775.314758,63.363800 750.899719,63.363800 726.481934,63.363800
	C726.481934,103.351303 726.481934,143.022125 726.481934,182.688507
	C751.485901,182.688507 776.054932,182.688507 800.388916,182.688507
	C800.388916,175.058670 800.388916,167.701431 800.388916,159.802185
	C784.335754,159.802185 768.276794,159.802185 752.231567,159.802185
	C752.231567,150.996429 752.231567,142.735443 752.231567,133.860840
	C766.193848,133.860840 779.902527,133.860840 793.658875,133.860840
	C793.658875,126.328712 793.658875,119.418274 793.658875,111.899895
	C779.664978,111.899895 765.957153,111.899895 751.543884,111.899895
	C751.997498,102.894745 752.419067,94.526810 753.782104,86.001312
M936.516479,63.014454
	C933.664124,64.199188 930.703369,65.176674 927.977173,66.602661
	C911.860901,75.032700 906.210266,98.065994 915.698669,113.474525
	C921.108398,122.259613 929.200562,126.464119 938.149597,129.902664
	C947.399597,133.456833 957.005310,136.264297 965.859985,140.611267
	C972.927917,144.081055 973.173096,153.282349 967.637451,158.974915
	C960.741638,166.066162 941.641479,166.337891 933.538391,157.914856
	C930.207947,154.452896 927.648193,150.249573 924.611938,146.216248
	C918.904114,150.142502 912.995850,154.206619 906.821045,158.454086
	C911.720215,168.491486 918.006958,176.483292 928.355103,181.192551
	C941.952820,187.380615 955.858459,187.545883 969.751953,183.768753
	C990.435608,178.145615 1000.333557,161.496933 996.011902,140.586060
	C993.036804,126.190712 982.470520,119.658134 970.032837,114.987511
	C960.880981,111.550789 951.278198,109.028351 942.630310,104.619667
	C934.640991,100.546722 933.289185,92.064568 940.822693,85.794434
	C949.200439,78.821617 969.206238,80.826271 972.990479,92.748528
	C973.390198,94.007858 974.359497,95.086403 975.079346,96.273163
	C982.050415,92.420395 988.453857,88.881393 994.983521,85.272575
	C991.824707,78.073799 987.861450,71.180191 981.324402,67.369202
	C967.569702,59.350433 952.685608,57.564945 936.516479,63.014454
M849.975281,293.925201
	C845.510864,311.295288 836.861389,313.152069 822.622986,311.885437
	C811.695007,310.913269 805.531860,303.409546 805.127991,290.067047
	C804.518127,269.918854 804.962646,249.738785 804.959412,229.572250
	C804.958740,225.171356 804.959290,220.770447 804.959290,216.368652
	C797.321472,216.368652 789.400146,216.368652 780.548706,216.368652
	C781.059326,244.915466 780.640564,273.200562 782.457764,301.341248
	C783.369141,315.454102 792.438965,325.777740 806.354370,331.171051
	C818.000244,335.684753 830.040894,336.511078 841.720215,333.568237
	C849.201721,331.683136 856.942200,327.615509 862.587463,322.388672
	C871.539124,314.100586 874.895874,302.517090 874.933289,290.263611
	C875.002502,267.597321 874.952026,244.930664 874.951355,222.264160
	C874.951294,220.329910 874.951294,218.395660 874.951294,216.352783
	C866.350159,216.352783 858.440247,216.352783 850.037476,216.352783
	C850.037476,242.106003 850.037476,267.565033 849.975281,293.925201
M893.945374,174.434250
	C893.945374,169.815277 893.945374,165.196304 893.945374,159.982635
	C877.386475,159.982635 861.345459,159.982635 845.340210,159.982635
	C845.340210,150.985367 845.340210,142.605362 845.340210,133.849274
	C859.666687,133.849274 873.599060,133.849274 887.239685,133.849274
	C887.239685,126.433197 887.239685,119.399750 887.239685,111.943268
	C873.324402,111.943268 859.398682,111.943268 845.261963,111.943268
	C845.261963,103.141281 845.261963,94.763405 845.261963,85.762619
	C861.614441,85.762619 877.652527,85.762619 893.584167,85.762619
	C893.584167,77.889145 893.584167,70.645813 893.584167,63.342312
	C868.995972,63.342312 844.765076,63.342312 820.438965,63.342312
	C820.438965,103.304924 820.438965,142.976639 820.438965,182.626404
	C845.066162,182.626404 869.296082,182.626404 893.943604,182.626404
	C893.943604,180.003113 893.943604,177.704514 893.945374,174.434250
M553.027283,269.500000
	C553.027283,290.232483 553.027283,310.964966 553.027283,332.071594
	C561.726013,332.071594 569.647705,332.071594 578.131592,332.071594
	C578.131592,319.402527 578.131592,306.339508 578.131592,293.495544
	C587.776733,292.962494 596.894897,292.899902 605.894592,291.835663
	C614.696533,290.794891 622.184082,286.793243 628.082031,279.777252
	C635.184631,271.328308 636.489868,261.477081 635.929932,251.093277
	C634.906189,232.106384 624.430725,219.612961 606.500488,217.378510
	C590.787537,215.420380 574.710632,216.380936 558.794250,216.062378
	C557.021362,216.026886 555.247070,216.057571 553.026978,216.057571
	C553.026978,233.938980 553.026978,251.219498 553.027283,269.500000
M822.956909,419.616425
	C832.040161,433.576080 841.073792,447.568604 850.268188,461.454651
	C851.445068,463.232025 853.362061,465.579926 855.103699,465.730865
	C861.176514,466.257141 867.322937,465.934448 873.694946,465.934448
	C873.694946,431.836395 873.694946,398.247040 873.694946,364.760284
	C866.833862,364.760284 860.054260,364.760284 853.440308,364.760284
	C853.440308,386.106476 853.440308,407.276245 853.440308,429.324402
	C838.881592,407.263306 824.700500,385.774353 811.094666,365.157104
	C804.902832,364.881165 799.360962,364.889282 793.887573,364.281189
	C791.203125,363.982941 789.989929,364.578857 790.106201,367.160187
	C790.321350,371.938995 790.974670,376.708801 790.992004,381.484009
	C791.084351,406.977386 791.050354,432.471313 791.015198,457.964966
	C791.011658,460.507446 790.705383,463.049530 790.543091,465.538483
	C797.621094,465.538483 804.675110,465.538483 812.177490,465.538483
	C812.177490,445.099487 812.177490,425.079102 812.177490,403.955750
	C816.077271,409.621277 819.308838,414.316071 822.956909,419.616425
M773.589233,402.152374
	C773.368042,401.543610 773.119629,400.943207 772.929626,400.324860
	C769.688171,389.772949 764.611816,380.582153 755.468384,373.748688
	C743.922791,365.119965 730.981812,362.032257 716.970276,363.118896
	C704.897522,364.055145 693.754211,368.356232 685.516846,377.269653
	C671.702271,392.217987 668.150208,410.236694 672.502502,429.917999
	C674.790649,440.265045 679.688416,449.222260 687.984741,455.906403
	C700.963623,466.363190 715.860596,469.513367 732.241516,467.019714
	C748.797729,464.499359 761.270630,456.220642 768.796692,441.263885
	C774.870544,429.193024 776.452454,416.287689 773.589233,402.152374
M974.054626,415.500000
	C974.054626,432.237488 974.054626,448.975006 974.054626,465.600250
	C981.801147,465.600250 988.715637,465.600250 996.048523,465.600250
	C996.048523,453.325409 996.048523,441.399414 996.048523,429.552155
	C1006.311401,427.907196 1006.224243,427.996704 1011.179199,436.346436
	C1016.601685,445.483887 1022.223145,454.505737 1027.921753,463.473755
	C1028.648438,464.617371 1030.341309,465.786102 1031.624756,465.829926
	C1038.429443,466.062378 1045.246094,465.939178 1052.943848,465.939178
	C1044.969360,452.554291 1037.323486,439.720856 1030.051514,427.515076
	C1034.348999,424.116821 1038.782715,421.634033 1041.830322,417.991547
	C1048.536865,409.976013 1049.036865,399.945923 1047.721558,390.275421
	C1046.343384,380.142792 1041.454590,371.520538 1031.096069,367.743561
	C1027.023926,366.258728 1022.552979,365.249695 1018.239258,365.157013
	C1003.647034,364.843506 989.043945,365.037506 974.052551,365.037506
	C974.052551,381.227570 974.052551,397.863800 974.054626,415.500000
M1160.494629,399.050110
	C1152.397949,421.188416 1144.301270,443.326721 1136.075562,465.817780
	C1144.065186,465.817780 1151.203125,465.817780 1158.439453,465.817780
	C1160.538208,459.725922 1162.880981,453.804840 1164.554932,447.700317
	C1165.409790,444.583344 1166.873535,443.805389 1169.781250,443.924194
	C1180.367676,444.356659 1190.965698,444.540283 1201.543457,445.110291
	C1202.783203,445.177094 1204.437256,446.832794 1205.021118,448.143158
	C1207.212280,453.061005 1208.949219,458.179718 1211.071289,463.131073
	C1211.551636,464.252228 1212.868042,465.766571 1213.846069,465.801575
	C1220.452026,466.037781 1227.070435,465.924774 1234.646240,465.924774
	C1221.686768,431.685486 1209.008545,398.188995 1196.358398,364.766449
	C1188.717651,364.766449 1181.342041,364.766449 1173.301392,364.766449
	C1169.239746,375.811859 1165.088379,387.100891 1160.494629,399.050110
M235.729767,401.031769
	C231.666534,402.034973 227.130219,402.222717 223.654678,404.238953
	C218.845856,407.028717 217.195694,414.747894 219.093689,419.955627
	C221.052567,425.330475 226.450470,428.958893 232.569046,428.959625
	C265.561768,428.963654 298.554474,428.956207 331.547180,428.954224
	C340.211914,428.953705 348.878326,429.065491 357.540985,428.932861
	C367.598999,428.778931 373.237030,421.460236 370.999878,411.714813
	C369.335358,404.463867 364.458099,401.041809 355.655212,401.039062
	C315.997284,401.026825 276.339386,401.031372 235.729767,401.031769
M901.494629,384.952484
	C905.580627,384.952484 909.666626,384.952484 914.157349,384.952484
	C914.157349,412.276031 914.157349,438.847748 914.157349,465.580536
	C921.611023,465.580536 928.639282,465.580536 936.072998,465.580536
	C936.072998,438.635559 936.072998,412.062531 936.072998,384.880310
	C945.180237,384.880310 953.894653,384.880310 962.724060,384.880310
	C962.724060,377.659454 962.724060,371.054169 962.724060,364.747253
	C937.476196,364.747253 912.448364,364.747253 887.350281,364.747253
	C887.350281,371.311676 887.350281,377.894104 887.350281,384.950958
	C891.924255,384.950958 896.213379,384.950958 901.494629,384.952484
M338.927795,446.491730
	C336.805206,445.674835 334.687134,444.161133 332.559326,444.147430
	C307.570984,443.985962 282.580719,443.976807 257.592072,444.119415
	C253.001236,444.145630 248.742981,445.715149 247.197266,450.737549
	C245.491165,456.281036 250.011002,466.479645 255.573624,467.503296
	C263.723358,469.003021 268.946869,474.043976 274.138458,479.593231
	C283.780334,489.899567 306.111969,490.195343 315.178101,479.334686
	C319.342590,474.345856 324.262329,470.322479 330.781738,468.551147
	C340.836578,465.819122 345.545471,456.532410 338.927795,446.491730
M1266.940430,392.500000
	C1266.940430,383.346313 1266.940430,374.192627 1266.940430,364.762970
	C1259.670166,364.762970 1252.548584,364.762970 1245.433960,364.762970
	C1245.433960,398.284637 1245.433960,431.978943 1245.433960,465.622742
	C1265.729126,465.622742 1285.627686,465.622742 1305.695801,465.622742
	C1305.695801,459.042480 1305.695801,452.799683 1305.695801,445.958435
	C1292.736206,445.958435 1280.025146,445.958435 1266.939941,445.958435
	C1266.939941,428.073883 1266.939941,410.786926 1266.940430,392.500000
M1093.364990,352.955750
	C1095.617920,352.723328 1098.821899,353.362396 1099.965820,352.113861
	C1106.317383,345.181458 1112.168579,337.790527 1118.620361,330.040680
	C1110.462158,330.040680 1102.876465,329.991119 1095.293213,330.100037
	C1094.282715,330.114532 1092.739380,330.663147 1092.364380,331.420624
	C1088.919189,338.379395 1085.677612,345.438904 1082.148560,352.954956
	C1086.135132,352.954956 1089.282104,352.954956 1093.364990,352.955750
M798.490417,32.963985
	C799.056458,31.760729 799.622498,30.557474 800.346558,29.018295
	C792.927368,29.018295 786.093445,28.852488 779.278931,29.143261
	C777.715698,29.209970 775.506104,30.479332 774.812805,31.823744
	C771.376343,38.486816 768.348267,45.360493 765.263733,51.972416
	C769.960083,51.972416 774.619751,52.143105 779.253967,51.874634
	C780.761597,51.787292 782.578979,50.900467 783.610229,49.784000
	C788.526733,44.461498 793.221252,38.934025 798.490417,32.963985
M564.518066,182.991577
	C569.271057,182.991577 574.023987,182.991577 578.675049,182.991577
	C578.675049,142.589783 578.675049,103.016029 578.675049,63.424507
	C569.970337,63.424507 561.597290,63.424507 553.314392,63.424507
	C553.314392,103.413376 553.314392,142.987717 553.314392,182.992676
	C556.930298,182.992676 560.229736,182.992676 564.518066,182.991577
z"/>
<path fill="#E1251F" opacity="1.000000" stroke="none"
	d="
M770.979919,532.861572
	C772.900940,531.561157 774.821960,530.260803 776.742981,528.960388
	C776.802856,528.828552 776.862671,528.696716 776.922546,528.564819
	C778.699341,527.728699 780.459656,526.213074 782.255676,526.169434
	C792.040344,525.931702 801.833862,526.045654 811.624329,526.065369
	C813.681824,526.069519 815.215942,526.025330 816.673401,528.582092
	C817.923279,530.774658 821.620178,531.506531 824.089050,533.109070
	C824.858093,533.608215 825.151367,534.840332 825.143433,536.287903
	C824.430664,537.975952 824.068665,539.112854 824.067688,540.250000
	C824.044128,567.465698 824.021667,594.681580 824.143372,621.896729
	C824.152466,623.928528 825.243530,625.955505 825.831665,627.984680
	C827.559570,628.671570 829.260498,629.855408 831.020447,629.950623
	C836.005432,630.220520 841.021240,629.907104 846.009460,630.145630
	C847.193176,630.202209 849.321533,631.538696 849.308838,632.256165
	C849.205505,638.092163 852.685303,640.082703 857.775696,640.364929
	C858.310852,647.156067 858.815552,653.560059 859.354309,660.396790
	C861.795532,660.647949 864.493958,660.925537 868.019226,661.288269
	C868.019226,659.102295 868.018921,657.363037 868.019165,655.623779
	C868.022339,634.291870 868.021606,612.959900 868.031250,591.627991
	C868.034607,584.164612 868.046387,584.168030 875.345459,584.053711
	C876.331604,584.038269 877.317017,583.968262 879.245117,583.880737
	C879.510681,580.156311 880.026489,576.463989 879.957092,572.782715
	C879.900879,569.803528 880.698975,567.856750 883.821777,567.666016
	C889.531860,567.317444 890.802734,563.956909 890.063660,559.010498
	C889.948181,558.237793 890.183716,557.412659 890.281982,556.337769
	C894.404785,556.337769 898.333618,556.337769 901.072998,556.337769
	C904.186157,561.343750 907.149658,565.678040 909.613464,570.279907
	C910.621033,572.161926 910.727661,574.607483 910.916870,576.824646
	C911.127380,579.291382 910.965027,581.789978 910.965027,584.892212
	C915.616089,584.892212 920.002686,584.892212 924.821838,584.892212
	C924.821838,589.425903 924.821838,593.358582 924.821838,597.660156
	C928.643860,597.660156 932.028931,597.660156 935.875732,597.660156
	C935.875732,594.033875 935.875732,590.436157 935.875732,586.445190
	C945.222778,586.445190 954.132812,586.445190 963.037842,586.445190
	C962.630981,593.258911 963.410522,593.836182 971.974182,592.508545
	C971.974182,610.513245 971.974182,628.458191 971.974182,646.727417
	C975.770996,646.727417 979.147339,646.727417 982.966431,646.727417
	C982.966431,636.915771 982.966431,627.320129 982.966431,617.118530
	C987.431152,617.118530 991.495728,617.118530 995.978027,617.118530
	C995.978027,611.591980 995.978027,606.656555 995.978027,601.377930
	C1004.662170,601.377930 1012.909058,601.377930 1021.779297,601.377930
	C1021.779297,606.339417 1021.779297,611.394836 1021.779297,616.775635
	C1024.969849,616.945129 1027.575073,617.083557 1030.790283,617.254333
	C1030.790283,623.659302 1030.790283,630.057861 1030.790283,636.744995
	C1034.993530,636.744995 1038.595825,636.744995 1042.614868,636.744995
	C1042.614868,631.833618 1042.614868,626.828308 1042.614868,621.084106
	C1050.282104,621.084106 1058.341675,620.990356 1066.392212,621.217896
	C1067.271729,621.242798 1068.473145,622.996033 1068.851196,624.165527
	C1069.280151,625.492615 1068.950195,627.064941 1068.950195,628.753906
	C1070.815063,628.753906 1072.204468,628.753906 1073.877686,628.753906
	C1074.000610,626.235962 1074.111694,623.959961 1074.237305,621.385437
	C1076.336792,621.193970 1078.274780,621.017151 1081.617676,620.712280
	C1080.872803,611.265747 1080.125732,601.790588 1079.355469,592.021606
	C1078.708374,592.280334 1079.011230,592.042847 1079.286743,592.071167
	C1080.084229,592.153259 1080.870850,592.342102 1081.484619,592.456177
	C1082.407349,588.825134 1083.206543,585.153748 1084.278198,581.563660
	C1087.197144,571.786194 1092.643799,563.551392 1101.485840,558.474915
	C1107.496216,555.024231 1108.022949,549.694092 1108.975098,544.134155
	C1109.113770,543.324402 1108.993042,542.470825 1108.998413,541.637573
	C1109.037476,535.594666 1110.171997,534.784851 1116.252441,536.734924
	C1116.162109,538.240784 1115.935425,539.827637 1115.994751,541.403687
	C1116.283813,549.073792 1118.782593,555.020508 1126.090942,559.265015
	C1136.224487,565.150208 1141.207397,575.239441 1143.843384,586.333862
	C1144.601929,589.526245 1144.950195,592.332825 1148.105713,592.483398
	C1147.357056,597.106934 1146.379150,601.395081 1146.038696,605.733276
	C1145.688721,610.193970 1145.961060,614.703491 1145.961060,619.684326
	C1148.553833,619.860168 1150.948242,620.022583 1153.920410,620.224182
	C1153.920410,625.411499 1153.920410,630.481628 1153.920410,636.040771
	C1163.456299,636.040771 1172.409424,636.056396 1181.362671,636.030090
	C1183.659302,636.023376 1185.658325,635.820374 1186.669678,638.852112
	C1188.075684,643.066345 1192.004517,641.999207 1195.264282,642.036682
	C1197.402100,642.061218 1199.540283,642.041260 1201.534546,642.041260
	C1201.304077,638.669800 1201.104736,635.751221 1200.864502,632.237061
	C1204.942627,632.237061 1208.675537,632.237061 1212.709595,632.237061
	C1212.927368,629.768616 1213.097778,627.836975 1213.341431,625.075806
	C1221.825317,625.075806 1230.403564,625.074585 1238.981934,625.080872
	C1239.312744,625.081116 1239.895752,625.073914 1239.938354,625.206116
	C1242.178467,632.177307 1248.355713,627.541016 1252.736572,629.646729
	C1252.736572,633.669006 1252.736572,637.934448 1252.736572,642.810303
	C1256.864258,642.810303 1260.583496,642.810303 1264.736816,642.810303
	C1264.736816,649.338867 1264.736816,655.270081 1264.736816,661.828674
	C1272.205444,661.828674 1279.259766,661.828674 1286.694092,661.828674
	C1286.853271,665.029602 1286.982544,667.629761 1287.153320,671.061096
	C1293.287598,671.061096 1299.446533,671.061096 1305.713623,671.061096
	C1305.713623,678.211975 1305.713623,684.792542 1305.713623,691.667480
	C902.584412,691.667480 499.688599,691.667480 96.425735,691.667480
	C96.425735,686.404358 96.425735,681.157288 96.425735,675.810303
	C100.651779,675.452087 104.993599,675.084106 109.361122,674.713867
	C112.137413,668.278381 107.036186,660.166626 113.822647,652.581604
	C113.822647,650.558167 113.822647,646.614441 113.822647,642.278564
	C115.846504,642.150574 118.106796,642.007629 120.649994,641.846863
	C120.901634,640.063782 121.147072,638.324585 121.454376,636.147095
	C128.770828,636.147095 136.040817,636.147095 143.678757,636.147095
	C143.678757,624.999146 143.678757,614.303589 143.678757,603.322327
	C144.872498,603.161499 146.276688,602.972290 147.798706,602.767151
	C147.798706,599.869202 147.798706,597.253662 147.798706,594.813721
	C155.337845,594.813721 164.474426,592.296265 170.561081,595.526184
	C176.571136,598.715515 181.938065,596.319031 187.583542,598.689148
	C188.081711,609.931519 188.598831,621.601746 189.143021,633.882690
	C196.276413,633.882690 203.340164,633.882690 210.476028,633.882690
	C211.157715,638.144775 211.746460,641.825806 212.376648,645.765869
	C215.997437,645.765869 219.608322,645.765869 223.533508,645.765869
	C223.533508,634.805420 223.533508,623.809875 223.533508,611.357117
	C232.339920,610.603027 241.385971,609.730408 250.449860,609.124023
	C252.613174,608.979431 254.616669,608.683716 256.755463,611.259338
	C258.227295,613.031799 262.957062,612.098877 266.852173,612.427612
	C266.852173,625.413818 266.852173,638.467285 266.852173,651.779907
	C272.732330,651.779907 277.996490,651.779907 283.491852,651.779907
	C284.029205,647.937622 284.450745,644.067261 285.177338,640.254944
	C285.392853,639.124084 286.312622,637.412231 287.172119,637.234253
	C293.189453,635.988770 299.261200,634.974915 305.347107,634.108521
	C307.615295,633.785706 309.967987,634.056458 312.725647,634.056458
	C312.913208,631.387756 313.081635,628.990967 313.267212,626.350586
	C315.043793,626.163635 316.655304,625.994019 318.873383,625.760620
	C318.873383,616.788208 318.873383,607.727844 318.873383,598.369324
	C322.780701,598.110229 326.131409,597.888062 329.453369,597.667786
	C329.261353,595.563843 329.133911,594.167236 328.968719,592.357422
	C335.567719,592.998291 340.640686,586.924377 347.320374,589.081116
	C349.828552,589.890991 352.158600,591.567749 354.695862,591.906921
	C360.075653,592.626282 365.538574,592.721191 370.966156,593.090515
	C371.439606,593.122620 371.903839,593.290344 372.780701,593.486450
	C373.287811,612.468628 373.795685,631.479065 374.312073,650.807922
	C376.679108,650.951965 378.948242,651.090027 381.656128,651.254822
	C381.832672,653.705994 382.005615,656.107300 382.200623,658.814575
	C384.006317,658.896240 385.614197,658.968994 388.063110,659.079773
	C388.063110,656.919006 388.063232,655.005615 388.063080,653.092224
	C388.060913,628.260498 388.404114,603.420532 387.808990,578.603027
	C387.663635,572.542114 390.429230,568.239075 392.377411,563.278870
	C394.885040,556.894409 397.292999,550.463806 400.071289,544.198242
	C400.675171,542.836426 402.530701,541.649780 404.055786,541.178345
	C405.728363,540.661255 407.685608,541.066895 409.518829,541.067383
	C421.417725,541.070374 421.353607,541.096802 425.978455,552.193176
	C427.742706,556.426147 429.678864,560.616516 431.931183,564.603516
	C432.924377,566.361633 434.900909,567.564270 437.460571,569.998047
	C437.460571,592.238708 437.460571,616.258118 437.460571,640.666504
	C441.952393,640.666504 446.670715,640.666504 451.890869,640.666504
	C452.398407,630.316772 452.906189,619.961792 453.437225,609.132629
	C457.393433,609.486023 461.368378,609.841064 465.995819,610.254395
	C465.995819,577.309753 465.995819,544.920471 465.995819,512.284119
	C469.184631,512.125427 471.787933,511.995880 474.813477,511.845337
	C474.813477,507.773865 474.813477,503.840210 474.813477,499.473816
	C488.073334,499.473816 500.906158,499.473816 513.490356,499.473816
	C513.490356,503.401978 513.490356,507.168976 513.490356,511.660828
	C516.081665,511.859772 518.629089,512.055359 521.782227,512.297424
	C521.782227,557.977783 521.782227,603.694092 521.782227,649.727417
	C526.634277,649.727417 530.899597,649.727417 535.799500,649.727417
	C535.799500,635.142822 535.799500,620.425232 535.799500,605.010986
	C538.346375,605.010986 540.315186,605.253601 542.196716,604.951904
	C544.782654,604.537354 548.492188,607.252441 549.766235,602.374451
	C549.883423,601.925964 552.560425,602.085022 554.049927,602.068420
	C557.512451,602.029785 560.975708,602.056152 564.882568,602.056152
	C564.882568,583.687439 564.882568,565.761780 564.882568,547.244019
	C569.039185,547.244019 572.773315,547.244019 576.762207,547.244019
	C576.762207,544.910095 576.762207,543.171021 576.762207,541.017151
	C584.423950,541.429749 592.311035,541.854553 600.635010,542.302795
	C600.635010,527.087646 600.635010,512.368652 600.635010,497.657135
	C603.883057,497.533844 603.939209,497.533691 603.947754,500.853424
	C603.979065,513.019165 603.969666,525.185120 603.975342,537.350952
	C603.975952,538.664612 603.975403,539.978210 603.975403,542.169250
	C610.948059,541.749573 617.586914,541.350037 624.730347,540.920105
	C624.730347,571.273743 624.730347,601.192017 624.730347,631.175415
	C628.904236,631.175415 632.591064,631.175415 636.856567,631.175415
	C636.856567,624.411316 636.856567,618.002197 636.856567,611.309692
	C638.792786,611.090576 640.203430,610.930908 641.525146,610.781311
	C641.525146,596.954468 641.525146,583.415649 641.525146,569.693604
	C645.528137,566.806885 652.397827,572.328552 656.364197,565.059448
	C660.139465,565.059448 664.792175,564.814697 669.389893,565.210144
	C670.750183,565.327148 671.955200,567.249084 674.099731,569.088867
	C675.296204,569.088867 677.770752,569.088867 680.786011,569.088867
	C680.786011,582.738953 680.786011,596.156555 680.786011,609.351135
	C685.999695,611.404541 685.410217,608.082947 685.158203,604.932983
	C688.381714,605.115417 691.297607,605.280396 694.768555,605.476868
	C694.898010,603.789062 695.055664,601.733765 695.254272,599.144165
	C700.271362,599.144165 705.349670,599.144165 710.879028,599.144165
	C710.879028,591.036865 710.879028,583.445557 710.879028,575.449707
	C720.366394,575.449707 729.397461,575.449707 738.562134,575.449707
	C738.934692,583.417847 739.302917,591.293335 740.027344,599.767944
	C741.671265,600.556152 742.955505,600.877686 744.247253,600.911743
	C750.635071,601.080078 750.955261,601.342407 750.975952,607.805176
	C751.008972,618.118958 750.930725,628.433533 751.040100,638.746277
	C751.062378,640.848022 751.706360,642.943237 752.063782,645.041443
	C752.063782,645.041443 751.959717,645.042419 752.322021,645.196838
	C758.136719,645.211975 763.589172,645.072693 769.041565,644.933411
	C769.041565,644.933411 769.041443,645.042542 769.191772,644.678345
	C769.557861,642.182495 769.951538,640.051392 769.959900,637.918884
	C770.008911,625.465881 770.066833,613.011475 769.933960,600.559509
	C769.726868,581.146240 769.278625,561.735046 769.167786,542.321594
	C769.149780,539.171814 770.345337,536.015076 770.979919,532.861572
z"/>
<path fill="#E1241E" opacity="1.000000" stroke="none"
	d="
M366.392151,384.746307
	C363.584381,385.244476 361.164917,385.923279 358.744385,385.927032
	C316.080872,385.993530 273.416168,385.810364 230.754242,386.079529
	C217.591263,386.162567 209.911057,376.853973 209.839249,365.385071
	C209.712250,345.100586 201.860535,327.414734 188.049683,312.606445
	C182.295990,306.437225 175.195969,301.469025 169.784180,295.047821
	C160.720383,284.293457 151.995514,273.168640 144.083771,261.548950
	C133.548965,246.076874 127.754784,228.366196 124.396835,210.167282
	C122.079613,197.608810 120.905975,184.593521 121.262283,171.839401
	C121.973366,146.386429 128.326782,122.016693 140.339737,99.476547
	C147.594528,85.864235 156.558182,73.377861 167.290573,62.062054
	C182.630096,45.888660 200.309708,33.272701 220.441833,23.941296
	C236.423370,16.533731 253.006454,11.061622 270.706329,10.101698
	C284.120331,9.374216 297.629456,8.469598 310.995056,9.290919
	C326.311768,10.232138 341.254242,13.998363 355.761780,19.351749
	C374.682007,26.333439 391.668701,36.284027 407.058899,49.413635
	C423.953552,63.826759 437.695374,80.622635 447.921112,100.193657
	C455.948517,115.557320 462.292786,131.728180 463.853180,149.153748
	C465.164093,163.793320 466.446594,178.595718 465.687775,193.219452
	C464.754089,211.212357 459.831848,228.583878 452.389587,245.153122
	C442.482513,267.209961 428.327423,286.165161 410.776001,302.627869
	C398.595184,314.053162 388.513794,326.957794 383.166473,342.878235
	C380.854034,349.762970 379.394806,357.211365 379.174713,364.453156
	C378.885406,373.973053 376.253082,381.159332 366.392151,384.746307
M428.545776,116.007164
	C418.721985,95.088959 404.278473,77.750732 386.112640,63.782661
	C363.041656,46.042889 336.607056,35.640717 307.661926,33.196350
	C287.261841,31.473600 266.879639,33.182732 247.146469,39.828743
	C218.058136,49.625504 193.652924,65.909088 174.957977,90.470459
	C157.716415,113.122368 148.156555,138.801178 146.210495,167.003906
	C145.421997,178.430969 146.762894,190.101746 148.070709,201.554779
	C150.221039,220.385864 157.384506,237.486389 167.642715,253.380569
	C175.924133,266.211823 186.183884,277.124115 197.500809,287.364105
	C204.232895,293.455536 209.430176,301.304932 214.998016,308.607544
	C224.586472,321.183441 230.906067,335.225677 232.978485,351.027069
	C234.312332,361.197205 235.304779,362.051849 245.825211,362.052612
	C257.656067,362.053436 269.486908,362.048553 281.317780,362.048584
	C303.146545,362.048615 324.975281,362.054077 346.804047,362.048584
	C351.364746,362.047455 355.017731,361.079224 355.138306,355.330048
	C355.195953,352.583191 355.860260,349.828796 356.431824,347.116180
	C361.249695,324.251648 373.390076,305.553345 389.453949,289.066956
	C397.095551,281.224396 405.562744,273.960724 412.010315,265.220825
	C435.208099,233.775528 446.284668,198.816772 441.169128,159.298279
	C439.234406,144.352097 435.051300,130.288025 428.545776,116.007164
z"/>
<path fill="#E1241E" opacity="1.000000" stroke="none"
	d="
M602.050415,171.969040
	C602.077148,135.842758 602.104309,100.212212 602.146057,64.581688
	C602.146423,64.280228 602.344788,63.978985 602.669678,63.054096
	C607.381348,63.054096 612.317139,63.055042 617.252869,63.053905
	C627.576111,63.051533 637.910583,62.739964 648.220154,63.114223
	C665.501465,63.741581 681.067627,69.018028 693.270142,81.872803
	C701.895935,90.959656 706.512878,102.249519 707.745300,114.423920
	C709.276917,129.554413 707.166016,144.210815 698.303772,157.366913
	C687.898560,172.813492 673.097534,180.767883 655.068176,181.764893
	C637.715210,182.724518 620.267700,181.972443 602.051636,181.972443
	C602.051636,179.294998 602.051636,175.879883 602.050415,171.969040
M626.958435,132.500000
	C626.958435,141.588242 626.958435,150.676483 626.958435,160.059692
	C633.694336,160.059692 639.674438,160.048965 645.654480,160.062057
	C656.140869,160.085022 664.927185,156.638062 672.616028,149.095627
	C688.212097,133.796387 686.452332,105.363373 666.822144,91.883385
	C654.578979,83.476044 640.943054,85.007355 626.958496,85.112938
	C626.958496,100.908966 626.958496,116.204483 626.958435,132.500000
z"/>
<path fill="#E1241E" opacity="1.000000" stroke="none"
	d="
M665.279846,229.276733
	C679.803711,216.147964 696.334473,211.122803 715.465088,213.926270
	C735.439148,216.853333 749.931641,227.650742 758.400757,245.332672
	C769.689392,268.901276 767.770081,292.489990 752.388428,313.653229
	C742.372742,327.433594 727.618896,334.285553 710.283020,334.983032
	C696.796448,335.525635 684.157959,333.036011 672.827759,325.361084
	C657.743835,315.143524 650.371033,300.561554 647.941467,282.785278
	C645.703430,266.410767 649.414185,251.617538 658.128479,237.903229
	C660.053650,234.873489 662.709900,232.308289 665.279846,229.276733
M673.044189,285.031189
	C673.638123,286.546722 674.312378,288.036194 674.814209,289.581665
	C682.593994,313.542480 713.450867,319.623535 729.989746,302.532837
	C738.479370,293.759888 740.443054,282.863861 740.076294,271.141907
	C739.480042,252.087921 724.396118,232.742096 700.477356,236.965759
	C685.950195,239.531052 678.175537,248.114288 673.921753,261.344238
	C671.493042,268.897980 671.534668,276.490784 673.044189,285.031189
z"/>
<path fill="#E1241E" opacity="1.000000" stroke="none"
	d="
M956.948242,288.966980
	C963.170593,299.547821 969.309937,309.762756 975.438110,319.984375
	C977.668457,323.704346 979.872070,327.440338 982.561462,331.965820
	C973.069885,331.965820 964.533569,331.965820 955.556946,331.965820
	C948.205627,319.494904 940.457764,306.607574 932.986511,293.561890
	C929.590454,287.631775 924.259033,290.959930 919.209473,289.675903
	C919.209473,304.216644 919.209473,318.271545 919.209473,332.256531
	C910.600952,332.256531 902.566650,332.256531 894.291931,332.256531
	C894.291931,293.989319 894.291931,255.428406 894.291931,216.548386
	C895.374207,216.387894 896.467651,216.087112 897.561951,216.084335
	C912.879822,216.045502 928.270081,215.104294 943.497681,216.272980
	C963.483093,217.806808 975.490662,228.697433 976.930481,250.109726
	C977.572876,259.664093 976.391602,269.057220 969.929626,276.572662
	C966.740723,280.281464 962.132996,282.755035 958.270325,285.913544
	C957.549377,286.503082 957.318176,287.691650 956.948242,288.966980
M918.972839,241.705215
	C918.972839,250.644592 918.972839,259.583984 918.972839,269.011475
	C926.102661,269.011475 932.737732,269.377045 939.313477,268.909088
	C945.943054,268.437286 951.543335,262.569885 952.029541,256.576569
	C952.887329,246.003204 950.031006,239.949310 941.811646,238.567764
	C934.860535,237.399384 927.584595,238.105530 920.454651,238.182632
	C919.953735,238.188049 919.470764,239.852676 918.972839,241.705215
z"/>
<path fill="#E1231D" opacity="1.000000" stroke="none"
	d="
M598.431152,447.830109
	C590.508606,432.513947 582.841553,417.511139 575.174500,402.508301
	C574.877563,402.563873 574.580627,402.619446 574.283691,402.675018
	C574.283691,423.490662 574.283691,444.306305 574.283691,465.538574
	C567.047546,465.538574 560.344971,465.538574 553.327881,465.538574
	C553.327881,431.908875 553.327881,398.339752 553.327881,364.055908
	C560.924805,364.055908 568.543884,363.706696 576.085571,364.315918
	C577.841858,364.457825 579.774597,367.634491 580.878174,369.796631
	C588.345337,384.427032 595.609558,399.161011 602.947815,413.857300
	C603.385681,414.734131 603.894775,415.575378 604.531860,416.723602
	C613.436829,399.132446 622.226318,381.769470 630.954895,364.526855
	C639.266357,364.526855 647.254822,364.526855 655.606445,364.526855
	C655.606445,397.944580 655.606445,431.650970 655.606445,465.655884
	C648.581360,465.655884 641.659302,465.655884 634.773865,465.655884
	C634.773865,444.486969 634.773865,423.327789 634.773865,400.669708
	C631.036011,408.091705 628.014465,414.322205 624.787292,420.444275
	C620.131104,429.277344 615.355286,438.047821 610.570435,446.812286
	C608.445862,450.703857 602.216003,451.353333 598.431152,447.830109
z"/>
<path fill="#E1231E" opacity="1.000000" stroke="none"
	d="
M753.311340,86.080093
	C752.419067,94.526810 751.997498,102.894745 751.543884,111.899895
	C765.957153,111.899895 779.664978,111.899895 793.658875,111.899895
	C793.658875,119.418274 793.658875,126.328712 793.658875,133.860840
	C779.902527,133.860840 766.193848,133.860840 752.231567,133.860840
	C752.231567,142.735443 752.231567,150.996429 752.231567,159.802185
	C768.276794,159.802185 784.335754,159.802185 800.388916,159.802185
	C800.388916,167.701431 800.388916,175.058670 800.388916,182.688507
	C776.054932,182.688507 751.485901,182.688507 726.481934,182.688507
	C726.481934,143.022125 726.481934,103.351303 726.481934,63.363800
	C750.899719,63.363800 775.314758,63.363800 800.321899,63.363800
	C800.321899,70.609009 800.321899,78.066940 800.321899,86.001312
	C784.987793,86.001312 769.384949,86.001312 753.311340,86.080093
z"/>
<path fill="#E1231E" opacity="1.000000" stroke="none"
	d="
M936.923279,62.969494
	C952.685608,57.564945 967.569702,59.350433 981.324402,67.369202
	C987.861450,71.180191 991.824707,78.073799 994.983521,85.272575
	C988.453857,88.881393 982.050415,92.420395 975.079346,96.273163
	C974.359497,95.086403 973.390198,94.007858 972.990479,92.748528
	C969.206238,80.826271 949.200439,78.821617 940.822693,85.794434
	C933.289185,92.064568 934.640991,100.546722 942.630310,104.619667
	C951.278198,109.028351 960.880981,111.550789 970.032837,114.987511
	C982.470520,119.658134 993.036804,126.190712 996.011902,140.586060
	C1000.333557,161.496933 990.435608,178.145615 969.751953,183.768753
	C955.858459,187.545883 941.952820,187.380615 928.355103,181.192551
	C918.006958,176.483292 911.720215,168.491486 906.821045,158.454086
	C912.995850,154.206619 918.904114,150.142502 924.611938,146.216248
	C927.648193,150.249573 930.207947,154.452896 933.538391,157.914856
	C941.641479,166.337891 960.741638,166.066162 967.637451,158.974915
	C973.173096,153.282349 972.927917,144.081055 965.859985,140.611267
	C957.005310,136.264297 947.399597,133.456833 938.149597,129.902664
	C929.200562,126.464119 921.108398,122.259613 915.698669,113.474525
	C906.210266,98.065994 911.860901,75.032700 927.977173,66.602661
	C930.703369,65.176674 933.664124,64.199188 936.923279,62.969494
z"/>
<path fill="#E1241E" opacity="1.000000" stroke="none"
	d="
M850.006348,293.474609
	C850.037476,267.565033 850.037476,242.106003 850.037476,216.352783
	C858.440247,216.352783 866.350159,216.352783 874.951294,216.352783
	C874.951294,218.395660 874.951294,220.329910 874.951355,222.264160
	C874.952026,244.930664 875.002502,267.597321 874.933289,290.263611
	C874.895874,302.517090 871.539124,314.100586 862.587463,322.388672
	C856.942200,327.615509 849.201721,331.683136 841.720215,333.568237
	C830.040894,336.511078 818.000244,335.684753 806.354370,331.171051
	C792.438965,325.777740 783.369141,315.454102 782.457764,301.341248
	C780.640564,273.200562 781.059326,244.915466 780.548706,216.368652
	C789.400146,216.368652 797.321472,216.368652 804.959290,216.368652
	C804.959290,220.770447 804.958740,225.171356 804.959412,229.572250
	C804.962646,249.738785 804.518127,269.918854 805.127991,290.067047
	C805.531860,303.409546 811.695007,310.913269 822.622986,311.885437
	C836.861389,313.152069 845.510864,311.295288 850.006348,293.474609
z"/>
<path fill="#E1241E" opacity="1.000000" stroke="none"
	d="
M893.944458,174.920090
	C893.943604,177.704514 893.943604,180.003113 893.943604,182.626404
	C869.296082,182.626404 845.066162,182.626404 820.438965,182.626404
	C820.438965,142.976639 820.438965,103.304924 820.438965,63.342312
	C844.765076,63.342312 868.995972,63.342312 893.584167,63.342312
	C893.584167,70.645813 893.584167,77.889145 893.584167,85.762619
	C877.652527,85.762619 861.614441,85.762619 845.261963,85.762619
	C845.261963,94.763405 845.261963,103.141281 845.261963,111.943268
	C859.398682,111.943268 873.324402,111.943268 887.239685,111.943268
	C887.239685,119.399750 887.239685,126.433197 887.239685,133.849274
	C873.599060,133.849274 859.666687,133.849274 845.340210,133.849274
	C845.340210,142.605362 845.340210,150.985367 845.340210,159.982635
	C861.345459,159.982635 877.386475,159.982635 893.945374,159.982635
	C893.945374,165.196304 893.945374,169.815277 893.944458,174.920090
z"/>
<path fill="#E1231D" opacity="1.000000" stroke="none"
	d="
M553.027100,269.000000
	C553.026978,251.219498 553.026978,233.938980 553.026978,216.057571
	C555.247070,216.057571 557.021362,216.026886 558.794250,216.062378
	C574.710632,216.380936 590.787537,215.420380 606.500488,217.378510
	C624.430725,219.612961 634.906189,232.106384 635.929932,251.093277
	C636.489868,261.477081 635.184631,271.328308 628.082031,279.777252
	C622.184082,286.793243 614.696533,290.794891 605.894592,291.835663
	C596.894897,292.899902 587.776733,292.962494 578.131592,293.495544
	C578.131592,306.339508 578.131592,319.402527 578.131592,332.071594
	C569.647705,332.071594 561.726013,332.071594 553.027283,332.071594
	C553.027283,310.964966 553.027283,290.232483 553.027100,269.000000
M602.799866,239.320740
	C594.674988,238.685760 586.550049,238.050781 578.324036,237.407913
	C578.324036,249.674438 578.324036,260.710388 578.324036,271.721802
	C579.182922,271.867737 579.664124,272.018311 580.146179,272.020782
	C584.971191,272.045654 589.796692,272.080048 594.621521,272.045837
	C602.507141,271.989960 609.469238,267.408905 610.934204,261.027039
	C612.983337,252.100632 610.824219,243.224945 602.799866,239.320740
z"/>
<path fill="#E1231E" opacity="1.000000" stroke="none"
	d="
M822.748657,419.313660
	C819.308838,414.316071 816.077271,409.621277 812.177490,403.955750
	C812.177490,425.079102 812.177490,445.099487 812.177490,465.538483
	C804.675110,465.538483 797.621094,465.538483 790.543091,465.538483
	C790.705383,463.049530 791.011658,460.507446 791.015198,457.964966
	C791.050354,432.471313 791.084351,406.977386 790.992004,381.484009
	C790.974670,376.708801 790.321350,371.938995 790.106201,367.160187
	C789.989929,364.578857 791.203125,363.982941 793.887573,364.281189
	C799.360962,364.889282 804.902832,364.881165 811.094666,365.157104
	C824.700500,385.774353 838.881592,407.263306 853.440308,429.324402
	C853.440308,407.276245 853.440308,386.106476 853.440308,364.760284
	C860.054260,364.760284 866.833862,364.760284 873.694946,364.760284
	C873.694946,398.247040 873.694946,431.836395 873.694946,465.934448
	C867.322937,465.934448 861.176514,466.257141 855.103699,465.730865
	C853.362061,465.579926 851.445068,463.232025 850.268188,461.454651
	C841.073792,447.568604 832.040161,433.576080 822.748657,419.313660
z"/>
<path fill="#E1231D" opacity="1.000000" stroke="none"
	d="
M773.738892,402.550964
	C776.452454,416.287689 774.870544,429.193024 768.796692,441.263885
	C761.270630,456.220642 748.797729,464.499359 732.241516,467.019714
	C715.860596,469.513367 700.963623,466.363190 687.984741,455.906403
	C679.688416,449.222260 674.790649,440.265045 672.502502,429.917999
	C668.150208,410.236694 671.702271,392.217987 685.516846,377.269653
	C693.754211,368.356232 704.897522,364.055145 716.970276,363.118896
	C730.981812,362.032257 743.922791,365.119965 755.468384,373.748688
	C764.611816,380.582153 769.688171,389.772949 772.929626,400.324860
	C773.119629,400.943207 773.368042,401.543610 773.738892,402.550964
M753.028931,418.250397
	C754.194885,401.016846 744.620056,384.862671 727.088928,382.307251
	C716.970581,380.832367 702.504639,386.652100 697.513550,395.877899
	C691.597839,406.813080 691.102905,418.283875 695.081421,429.724518
	C701.703674,448.767242 725.391724,452.313416 738.453491,444.116516
	C747.740234,438.288635 751.472534,429.406799 753.028931,418.250397
z"/>
<path fill="#E1241E" opacity="1.000000" stroke="none"
	d="
M974.053589,415.000000
	C974.052551,397.863800 974.052551,381.227570 974.052551,365.037506
	C989.043945,365.037506 1003.647034,364.843506 1018.239258,365.157013
	C1022.552979,365.249695 1027.023926,366.258728 1031.096069,367.743561
	C1041.454590,371.520538 1046.343384,380.142792 1047.721558,390.275421
	C1049.036865,399.945923 1048.536865,409.976013 1041.830322,417.991547
	C1038.782715,421.634033 1034.348999,424.116821 1030.051514,427.515076
	C1037.323486,439.720856 1044.969360,452.554291 1052.943848,465.939178
	C1045.246094,465.939178 1038.429443,466.062378 1031.624756,465.829926
	C1030.341309,465.786102 1028.648438,464.617371 1027.921753,463.473755
	C1022.223145,454.505737 1016.601685,445.483887 1011.179199,436.346436
	C1006.224243,427.996704 1006.311401,427.907196 996.048523,429.552155
	C996.048523,441.399414 996.048523,453.325409 996.048523,465.600250
	C988.715637,465.600250 981.801147,465.600250 974.054626,465.600250
	C974.054626,448.975006 974.054626,432.237488 974.053589,415.000000
M1025.553467,401.923889
	C1025.819214,400.643829 1026.216797,399.375183 1026.328613,398.081818
	C1026.880615,391.697937 1023.172180,384.864197 1018.075500,384.185272
	C1010.952087,383.236359 1003.722351,383.085754 995.959595,382.553955
	C995.959595,387.938660 995.867676,392.391052 995.976257,396.838531
	C996.367737,412.878082 992.337646,411.151886 1011.151550,410.874786
	C1016.862793,410.790680 1023.264832,410.021576 1025.553467,401.923889
z"/>
<path fill="#E1241E" opacity="1.000000" stroke="none"
	d="
M1160.715820,398.720001
	C1165.088379,387.100891 1169.239746,375.811859 1173.301392,364.766449
	C1181.342041,364.766449 1188.717651,364.766449 1196.358398,364.766449
	C1209.008545,398.188995 1221.686768,431.685486 1234.646240,465.924774
	C1227.070435,465.924774 1220.452026,466.037781 1213.846069,465.801575
	C1212.868042,465.766571 1211.551636,464.252228 1211.071289,463.131073
	C1208.949219,458.179718 1207.212280,453.061005 1205.021118,448.143158
	C1204.437256,446.832794 1202.783203,445.177094 1201.543457,445.110291
	C1190.965698,444.540283 1180.367676,444.356659 1169.781250,443.924194
	C1166.873535,443.805389 1165.409790,444.583344 1164.554932,447.700317
	C1162.880981,453.804840 1160.538208,459.725922 1158.439453,465.817780
	C1151.203125,465.817780 1144.065186,465.817780 1136.075562,465.817780
	C1144.301270,443.326721 1152.397949,421.188416 1160.715820,398.720001
M1182.833252,395.399261
	C1179.339600,405.478973 1175.845947,415.558655 1172.303101,425.780334
	C1180.832153,425.780334 1188.751099,425.780334 1197.052734,425.780334
	C1192.734863,413.958313 1188.550049,402.500458 1184.338989,390.970734
	C1183.862183,392.229523 1183.405273,393.435852 1182.833252,395.399261
z"/>
<path fill="#E1241F" opacity="1.000000" stroke="none"
	d="
M1086.180542,447.035858
	C1099.606812,447.035858 1113.033203,447.035858 1126.711670,447.035858
	C1126.711670,452.537170 1126.711670,458.822693 1126.711670,465.536316
	C1106.093262,465.536316 1085.400146,465.536316 1064.376953,465.536316
	C1064.376953,431.999969 1064.376953,398.435120 1064.376953,364.758362
	C1084.813477,364.758362 1105.314331,364.758362 1126.160889,364.758362
	C1126.160889,370.908783 1126.160889,377.237549 1126.160889,383.962463
	C1113.375732,383.962463 1100.239502,383.962463 1086.422607,384.324615
	C1085.505371,390.816833 1085.299561,396.948273 1085.020874,403.076416
	C1084.850830,406.812561 1086.757812,408.021790 1090.244873,407.957031
	C1096.573242,407.839539 1102.905518,407.941193 1109.236206,407.945038
	C1120.718872,407.952026 1120.626221,407.945526 1120.073120,419.226074
	C1119.908325,422.587250 1118.617554,424.065826 1115.250610,424.027893
	C1108.421021,423.950897 1101.587769,423.909515 1094.760742,424.064423
	C1091.817505,424.131226 1088.886230,424.722382 1085.949463,425.075317
	C1085.949463,425.075317 1085.948730,424.949554 1085.810059,425.316467
	C1085.841187,432.800842 1086.010864,439.918365 1086.180542,447.035858
z"/>
<path fill="#E1241E" opacity="1.000000" stroke="none"
	d="
M236.205612,401.030823
	C276.339386,401.031372 315.997284,401.026825 355.655212,401.039062
	C364.458099,401.041809 369.335358,404.463867 370.999878,411.714813
	C373.237030,421.460236 367.598999,428.778931 357.540985,428.932861
	C348.878326,429.065491 340.211914,428.953705 331.547180,428.954224
	C298.554474,428.956207 265.561768,428.963654 232.569046,428.959625
	C226.450470,428.958893 221.052567,425.330475 219.093689,419.955627
	C217.195694,414.747894 218.845856,407.028717 223.654678,404.238953
	C227.130219,402.222717 231.666534,402.034973 236.205612,401.030823
z"/>
<path fill="#E1231D" opacity="1.000000" stroke="none"
	d="
M900.998535,384.951721
	C896.213379,384.950958 891.924255,384.950958 887.350281,384.950958
	C887.350281,377.894104 887.350281,371.311676 887.350281,364.747253
	C912.448364,364.747253 937.476196,364.747253 962.724060,364.747253
	C962.724060,371.054169 962.724060,377.659454 962.724060,384.880310
	C953.894653,384.880310 945.180237,384.880310 936.072998,384.880310
	C936.072998,412.062531 936.072998,438.635559 936.072998,465.580536
	C928.639282,465.580536 921.611023,465.580536 914.157349,465.580536
	C914.157349,438.847748 914.157349,412.276031 914.157349,384.952484
	C909.666626,384.952484 905.580627,384.952484 900.998535,384.951721
z"/>
<path fill="#E1241E" opacity="1.000000" stroke="none"
	d="
M339.190796,446.789795
	C345.545471,456.532410 340.836578,465.819122 330.781738,468.551147
	C324.262329,470.322479 319.342590,474.345856 315.178101,479.334686
	C306.111969,490.195343 283.780334,489.899567 274.138458,479.593231
	C268.946869,474.043976 263.723358,469.003021 255.573624,467.503296
	C250.011002,466.479645 245.491165,456.281036 247.197266,450.737549
	C248.742981,445.715149 253.001236,444.145630 257.592072,444.119415
	C282.580719,443.976807 307.570984,443.985962 332.559326,444.147430
	C334.687134,444.161133 336.805206,445.674835 339.190796,446.789795
z"/>
<path fill="#E0231D" opacity="1.000000" stroke="none"
	d="
M1266.940186,393.000000
	C1266.939941,410.786926 1266.939941,428.073883 1266.939941,445.958435
	C1280.025146,445.958435 1292.736206,445.958435 1305.695801,445.958435
	C1305.695801,452.799683 1305.695801,459.042480 1305.695801,465.622742
	C1285.627686,465.622742 1265.729126,465.622742 1245.433960,465.622742
	C1245.433960,431.978943 1245.433960,398.284637 1245.433960,364.762970
	C1252.548584,364.762970 1259.670166,364.762970 1266.940430,364.762970
	C1266.940430,374.192627 1266.940430,383.346313 1266.940186,393.000000
z"/>
<path fill="#DF201B" opacity="1.000000" stroke="none"
	d="
M1092.897095,352.955353
	C1089.282104,352.954956 1086.135132,352.954956 1082.148560,352.954956
	C1085.677612,345.438904 1088.919189,338.379395 1092.364380,331.420624
	C1092.739380,330.663147 1094.282715,330.114532 1095.293213,330.100037
	C1102.876465,329.991119 1110.462158,330.040680 1118.620361,330.040680
	C1112.168579,337.790527 1106.317383,345.181458 1099.965820,352.113861
	C1098.821899,353.362396 1095.617920,352.723328 1092.897095,352.955353
z"/>
<path fill="#DF201B" opacity="1.000000" stroke="none"
	d="
M798.242554,33.221733
	C793.221252,38.934025 788.526733,44.461498 783.610229,49.784000
	C782.578979,50.900467 780.761597,51.787292 779.253967,51.874634
	C774.619751,52.143105 769.960083,51.972416 765.263733,51.972416
	C768.348267,45.360493 771.376343,38.486816 774.812805,31.823744
	C775.506104,30.479332 777.715698,29.209970 779.278931,29.143261
	C786.093445,28.852488 792.927368,29.018295 800.346558,29.018295
	C799.622498,30.557474 799.056458,31.760729 798.242554,33.221733
z"/>
<path fill="#DA0000" opacity="1.000000" stroke="none"
	d="
M564.023560,182.992126
	C560.229736,182.992676 556.930298,182.992676 553.314392,182.992676
	C553.314392,142.987717 553.314392,103.413376 553.314392,63.424507
	C561.597290,63.424507 569.970337,63.424507 578.675049,63.424507
	C578.675049,103.016029 578.675049,142.589783 578.675049,182.991577
	C574.023987,182.991577 569.271057,182.991577 564.023560,182.992126
M560.683350,181.999207
	C564.516296,181.999649 568.358826,181.830902 572.179749,182.045410
	C576.496338,182.287735 578.131287,180.523285 578.033630,176.197525
	C577.826782,167.036407 577.960693,157.867493 577.961731,148.701782
	C577.964539,123.037773 577.979614,97.373772 577.970459,71.709763
	C577.967773,64.073746 577.880798,64.016663 570.061096,63.995438
	C566.728149,63.986393 563.379272,64.185745 560.066040,63.927078
	C555.414612,63.563938 553.987061,65.633438 554.000793,70.080070
	C554.109802,105.409340 554.103027,140.739182 554.013550,176.068542
	C554.002930,180.238708 555.301636,182.466278 560.683350,181.999207
z"/>
<path fill="#DB0706" opacity="1.000000" stroke="none"
	d="
M770.644714,532.910706
	C770.345337,536.015076 769.149780,539.171814 769.167786,542.321594
	C769.278625,561.735046 769.726868,581.146240 769.933960,600.559509
	C770.066833,613.011475 770.008911,625.465881 769.959900,637.918884
	C769.951538,640.051392 769.557861,642.182495 769.137207,644.678345
	C768.956604,641.867004 769.069336,638.689209 768.989563,635.516296
	C768.693481,623.747131 768.139038,611.981201 768.042297,600.211121
	C767.880615,580.555176 768.005432,560.896851 767.983215,541.239563
	C767.980591,538.923218 767.656250,536.594360 767.841125,534.300354
	C767.882141,533.790527 769.446533,533.403442 770.644714,532.910706
z"/>
<path fill="#DA0000" opacity="1.000000" stroke="none"
	d="
M1086.422852,425.042511
	C1088.886230,424.722382 1091.817505,424.131226 1094.760742,424.064423
	C1101.587769,423.909515 1108.421021,423.950897 1115.250610,424.027893
	C1118.617554,424.065826 1119.908325,422.587250 1120.073120,419.226074
	C1120.626221,407.945526 1120.718872,407.952026 1109.236206,407.945038
	C1102.905518,407.941193 1096.573242,407.839539 1090.244873,407.957031
	C1086.757812,408.021790 1084.850830,406.812561 1085.020874,403.076416
	C1085.299561,396.948273 1085.505371,390.816833 1085.965820,384.328979
	C1086.189819,391.425018 1086.189819,398.878815 1086.189819,406.935181
	C1098.068237,406.935181 1109.772095,406.935181 1121.732544,406.935181
	C1121.732544,413.117432 1121.732544,418.697235 1121.732544,425.009705
	C1110.053223,425.009705 1098.474609,425.009705 1086.422852,425.042511
z"/>
<path fill="#DB0706" opacity="1.000000" stroke="none"
	d="
M825.902039,627.555054
	C825.243530,625.955505 824.152466,623.928528 824.143372,621.896729
	C824.021667,594.681580 824.044128,567.465698 824.067688,540.250000
	C824.068665,539.112854 824.430664,537.975952 824.820312,536.493103
	C825.117676,540.184448 825.219238,544.221558 825.202881,549.096802
	C825.112549,560.621460 825.140076,571.308167 825.167603,581.994812
	C825.225037,585.076355 825.282471,588.157837 825.229065,592.093506
	C825.359680,602.312256 825.601135,611.676758 825.842651,621.041321
	C825.885864,623.069336 825.929138,625.097412 825.902039,627.555054
z"/>
<path fill="#DB0706" opacity="1.000000" stroke="none"
	d="
M752.034302,644.569214
	C751.706360,642.943237 751.062378,640.848022 751.040100,638.746277
	C750.930725,628.433533 751.008972,618.118958 750.975952,607.805176
	C750.955261,601.342407 750.635071,601.080078 744.247253,600.911743
	C742.955505,600.877686 741.671265,600.556152 740.224976,600.141113
	C743.786499,599.507996 747.506592,599.100891 752.004883,598.608582
	C752.004883,614.239685 752.004883,629.168335 752.034302,644.569214
z"/>
<path fill="#E3433D" opacity="1.000000" stroke="none"
	d="
M825.501953,581.735046
	C825.140076,571.308167 825.112549,560.621460 825.125488,549.469421
	C825.445007,552.371033 825.926758,555.735962 825.961731,559.105469
	C826.039124,566.560791 825.891907,574.018555 825.501953,581.735046
z"/>
<path fill="#E3433D" opacity="1.000000" stroke="none"
	d="
M825.897827,620.570312
	C825.601135,611.676758 825.359680,602.312256 825.157776,592.483521
	C825.464844,597.560547 825.805603,603.099426 825.974548,608.643616
	C826.090759,612.458435 825.968689,616.280457 825.897827,620.570312
z"/>
<path fill="#DA0000" opacity="1.000000" stroke="none"
	d="
M1086.105103,446.567993
	C1086.010864,439.918365 1085.841187,432.800842 1085.873047,425.315979
	C1086.059570,431.999115 1086.044556,439.049591 1086.105103,446.567993
z"/>
<path fill="#DB0706" opacity="1.000000" stroke="none"
	d="
M768.570312,644.963135
	C763.589172,645.072693 758.136719,645.211975 752.321411,645.144775
	C757.338745,644.956482 762.718933,644.974670 768.570312,644.963135
z"/>
<path fill="#ffffff" opacity="0.000000" stroke="none"
	d="
M428.747772,116.331169
	C435.051300,130.288025 439.234406,144.352097 441.169128,159.298279
	C446.284668,198.816772 435.208099,233.775528 412.010315,265.220825
	C405.562744,273.960724 397.095551,281.224396 389.453949,289.066956
	C373.390076,305.553345 361.249695,324.251648 356.431824,347.116180
	C355.860260,349.828796 355.195953,352.583191 355.138306,355.330048
	C355.017731,361.079224 351.364746,362.047455 346.804047,362.048584
	C324.975281,362.054077 303.146545,362.048615 281.317780,362.048584
	C269.486908,362.048553 257.656067,362.053436 245.825211,362.052612
	C235.304779,362.051849 234.312332,361.197205 232.978485,351.027069
	C230.906067,335.225677 224.586472,321.183441 214.998016,308.607544
	C209.430176,301.304932 204.232895,293.455536 197.500809,287.364105
	C186.183884,277.124115 175.924133,266.211823 167.642715,253.380569
	C157.384506,237.486389 150.221039,220.385864 148.070709,201.554779
	C146.762894,190.101746 145.421997,178.430969 146.210495,167.003906
	C148.156555,138.801178 157.716415,113.122368 174.957977,90.470459
	C193.652924,65.909088 218.058136,49.625504 247.146469,39.828743
	C266.879639,33.182732 287.261841,31.473600 307.661926,33.196350
	C336.607056,35.640717 363.041656,46.042889 386.112640,63.782661
	C404.278473,77.750732 418.721985,95.088959 428.747772,116.331169
M253.591232,249.910980
	C254.490570,249.621994 255.604736,248.839462 256.255066,249.122543
	C261.214905,251.281372 266.130157,253.558685 270.942719,256.026398
	C271.896393,256.515381 272.839905,257.934631 272.947540,259.009125
	C273.471954,264.245789 273.392456,269.558746 274.170013,274.748352
	C274.640747,277.890198 273.657867,282.752533 278.976410,282.884338
	C288.803650,283.127930 298.641998,283.022766 308.474213,282.918793
	C312.588104,282.875336 314.730682,280.558472 314.954926,276.415649
	C315.249023,270.981079 315.389038,265.520264 316.095276,260.136292
	C316.320007,258.422852 317.792297,256.334900 319.300201,255.437607
	C322.651886,253.443192 326.516418,252.322952 329.923218,250.404724
	C332.474487,248.968231 334.379242,249.223602 336.532440,250.962326
	C341.116089,254.663696 346.010468,258.009186 350.366791,261.954102
	C353.863739,265.120819 356.379181,264.349243 359.183075,261.309570
	C364.461273,255.587570 369.782440,249.903214 375.180634,244.294464
	C379.912170,239.378342 380.094147,236.838501 375.955505,231.470398
	C372.961517,227.587006 369.913239,223.726105 367.241211,219.625748
	C366.449860,218.411407 366.229431,216.132751 366.822754,214.832581
	C368.968018,210.131775 371.571014,205.639877 373.993713,201.083237
	C380.176697,200.368744 386.408508,199.881821 392.547577,198.845337
	C395.842560,198.289017 398.276886,196.783371 398.076324,192.277267
	C397.639496,182.463425 397.881683,172.616013 397.981750,162.783707
	C398.011017,159.909378 397.580811,158.091934 394.068512,157.866470
	C389.017212,157.542252 383.942200,156.953125 378.994781,155.916412
	C376.569366,155.408173 373.647583,154.185257 372.299255,152.313950
	C370.049591,149.191650 369.015991,145.220184 367.216187,141.737610
	C365.925079,139.239334 365.858063,137.556320 368.030457,135.221985
	C371.580200,131.407639 374.787689,127.156639 377.428223,122.671097
	C378.519806,120.816711 378.849762,116.971321 377.682190,115.589783
	C371.806305,108.637077 365.300751,102.218468 359.061218,95.570160
	C356.749207,93.106712 354.235931,93.055748 351.693207,94.920891
	C347.342072,98.112511 342.782928,101.123787 338.918213,104.841820
	C335.965179,107.682777 333.544891,107.706367 330.342194,105.844704
	C327.365479,104.114410 324.380798,101.953049 321.127289,101.259995
	C317.334534,100.452072 316.412506,98.069672 316.036041,95.142960
	C315.469116,90.736290 315.185638,86.283630 314.988678,81.841347
	C314.753143,76.528595 313.466095,75.084213 308.184387,75.058838
	C299.184601,75.015610 290.184479,75.047073 281.184479,75.049156
	C275.321808,75.050514 274.446075,75.928749 274.046478,81.812210
	C273.644409,87.731918 273.141296,93.644768 272.703766,99.285789
	C266.607819,102.206268 260.636078,105.067245 254.696274,107.912910
	C249.243805,103.588196 244.038727,99.020897 238.329041,95.209557
	C236.704834,94.125366 232.676300,94.254105 231.350754,95.512466
	C224.509735,102.006775 218.119049,108.984901 211.732315,115.942085
	C210.000641,117.828438 209.342651,119.891708 211.672272,122.424500
	C214.972031,126.012085 217.510895,130.288208 220.673477,134.016876
	C223.208298,137.005447 224.523422,139.737900 221.997284,143.426498
	C220.430084,145.714859 218.894516,148.219086 218.182892,150.852859
	C217.161148,154.634308 214.560226,155.565552 211.315964,156.037079
	C204.929825,156.965256 198.547623,157.920593 192.056107,158.880615
	C192.056107,170.946335 192.058578,182.101181 192.054382,193.256027
	C192.053314,196.059357 192.875061,197.869568 196.193314,198.133453
	C200.576630,198.482040 204.944534,199.202652 209.271164,200.017593
	C211.769836,200.488235 215.423370,200.718689 216.387253,202.344040
	C219.301117,207.257599 221.219986,212.774277 223.325012,218.135056
	C223.545624,218.696854 222.499634,219.840988 221.914749,220.619919
	C218.770477,224.807190 215.681870,229.042099 212.383224,233.105652
	C210.041321,235.990631 208.966049,238.610825 211.940842,241.771713
	C218.510574,248.752350 224.828384,255.978790 231.616302,262.735992
	C232.639908,263.754944 236.204010,263.594299 237.624161,262.598145
	C242.976730,258.843658 247.929092,254.518661 253.591232,249.910980
z"/>
<path fill="#ffffff" opacity="0.000000" stroke="none"
	d="
M626.958496,132.000000
	C626.958496,116.204483 626.958496,100.908966 626.958496,85.112938
	C640.943054,85.007355 654.578979,83.476044 666.822144,91.883385
	C686.452332,105.363373 688.212097,133.796387 672.616028,149.095627
	C664.927185,156.638062 656.140869,160.085022 645.654480,160.062057
	C639.674438,160.048965 633.694336,160.059692 626.958435,160.059692
	C626.958435,150.676483 626.958435,141.588242 626.958496,132.000000
z"/>
<path fill="#ffffff" opacity="0.000000" stroke="none"
	d="
M673.013245,284.601685
	C671.534668,276.490784 671.493042,268.897980 673.921753,261.344238
	C678.175537,248.114288 685.950195,239.531052 700.477356,236.965759
	C724.396118,232.742096 739.480042,252.087921 740.076294,271.141907
	C740.443054,282.863861 738.479370,293.759888 729.989746,302.532837
	C713.450867,319.623535 682.593994,313.542480 674.814209,289.581665
	C674.312378,288.036194 673.638123,286.546722 673.013245,284.601685
z"/>
<path fill="#ffffff" opacity="0.000000" stroke="none"
	d="
M918.976135,241.225494
	C919.470764,239.852676 919.953735,238.188049 920.454651,238.182632
	C927.584595,238.105530 934.860535,237.399384 941.811646,238.567764
	C950.031006,239.949310 952.887329,246.003204 952.029541,256.576569
	C951.543335,262.569885 945.943054,268.437286 939.313477,268.909088
	C932.737732,269.377045 926.102661,269.011475 918.972839,269.011475
	C918.972839,259.583984 918.972839,250.644592 918.976135,241.225494
z"/>
<path fill="#ffffff" opacity="0.000000" stroke="none"
	d="
M603.098145,239.581543
	C610.824219,243.224945 612.983337,252.100632 610.934204,261.027039
	C609.469238,267.408905 602.507141,271.989960 594.621521,272.045837
	C589.796692,272.080048 584.971191,272.045654 580.146179,272.020782
	C579.664124,272.018311 579.182922,271.867737 578.324036,271.721802
	C578.324036,260.710388 578.324036,249.674438 578.324036,237.407913
	C586.550049,238.050781 594.674988,238.685760 603.098145,239.581543
z"/>
<path fill="#ffffff" opacity="0.000000" stroke="none"
	d="
M753.028198,418.705688
	C751.472534,429.406799 747.740234,438.288635 738.453491,444.116516
	C725.391724,452.313416 701.703674,448.767242 695.081421,429.724518
	C691.102905,418.283875 691.597839,406.813080 697.513550,395.877899
	C702.504639,386.652100 716.970581,380.832367 727.088928,382.307251
	C744.620056,384.862671 754.194885,401.016846 753.028198,418.705688
z"/>
<path fill="#ffffff" opacity="0.000000" stroke="none"
	d="
M1025.326904,402.244568
	C1023.264832,410.021576 1016.862793,410.790680 1011.151550,410.874786
	C992.337646,411.151886 996.367737,412.878082 995.976257,396.838531
	C995.867676,392.391052 995.959595,387.938660 995.959595,382.553955
	C1003.722351,383.085754 1010.952087,383.236359 1018.075500,384.185272
	C1023.172180,384.864197 1026.880615,391.697937 1026.328613,398.081818
	C1026.216797,399.375183 1025.819214,400.643829 1025.326904,402.244568
z"/>
<path fill="#ffffff" opacity="0.000000" stroke="none"
	d="
M1182.890869,395.020752
	C1183.405273,393.435852 1183.862183,392.229523 1184.338989,390.970734
	C1188.550049,402.500458 1192.734863,413.958313 1197.052734,425.780334
	C1188.751099,425.780334 1180.832153,425.780334 1172.303101,425.780334
	C1175.845947,415.558655 1179.339600,405.478973 1182.890869,395.020752
z"/>
<path fill="#E1261F" opacity="1.000000" stroke="none"
	d="
M560.215454,181.997040
	C555.301636,182.466278 554.002930,180.238708 554.013550,176.068542
	C554.103027,140.739182 554.109802,105.409340 554.000793,70.080070
	C553.987061,65.633438 555.414612,63.563938 560.066040,63.927078
	C563.379272,64.185745 566.728149,63.986393 570.061096,63.995438
	C577.880798,64.016663 577.967773,64.073746 577.970459,71.709763
	C577.979614,97.373772 577.964539,123.037773 577.961731,148.701782
	C577.960693,157.867493 577.826782,167.036407 578.033630,176.197525
	C578.131287,180.523285 576.496338,182.287735 572.179749,182.045410
	C568.358826,181.830902 564.516296,181.999649 560.215454,181.997040
z"/>
<path fill="#E1251F" opacity="1.000000" stroke="none"
	d="
M253.311279,250.159134
	C247.929092,254.518661 242.976730,258.843658 237.624161,262.598145
	C236.204010,263.594299 232.639908,263.754944 231.616302,262.735992
	C224.828384,255.978790 218.510574,248.752350 211.940842,241.771713
	C208.966049,238.610825 210.041321,235.990631 212.383224,233.105652
	C215.681870,229.042099 218.770477,224.807190 221.914749,220.619919
	C222.499634,219.840988 223.545624,218.696854 223.325012,218.135056
	C221.219986,212.774277 219.301117,207.257599 216.387253,202.344040
	C215.423370,200.718689 211.769836,200.488235 209.271164,200.017593
	C204.944534,199.202652 200.576630,198.482040 196.193314,198.133453
	C192.875061,197.869568 192.053314,196.059357 192.054382,193.256027
	C192.058578,182.101181 192.056107,170.946335 192.056107,158.880615
	C198.547623,157.920593 204.929825,156.965256 211.315964,156.037079
	C214.560226,155.565552 217.161148,154.634308 218.182892,150.852859
	C218.894516,148.219086 220.430084,145.714859 221.997284,143.426498
	C224.523422,139.737900 223.208298,137.005447 220.673477,134.016876
	C217.510895,130.288208 214.972031,126.012085 211.672272,122.424500
	C209.342651,119.891708 210.000641,117.828438 211.732315,115.942085
	C218.119049,108.984901 224.509735,102.006775 231.350754,95.512466
	C232.676300,94.254105 236.704834,94.125366 238.329041,95.209557
	C244.038727,99.020897 249.243805,103.588196 254.696274,107.912910
	C260.636078,105.067245 266.607819,102.206268 272.703766,99.285789
	C273.141296,93.644768 273.644409,87.731918 274.046478,81.812210
	C274.446075,75.928749 275.321808,75.050514 281.184479,75.049156
	C290.184479,75.047073 299.184601,75.015610 308.184387,75.058838
	C313.466095,75.084213 314.753143,76.528595 314.988678,81.841347
	C315.185638,86.283630 315.469116,90.736290 316.036041,95.142960
	C316.412506,98.069672 317.334534,100.452072 321.127289,101.259995
	C324.380798,101.953049 327.365479,104.114410 330.342194,105.844704
	C333.544891,107.706367 335.965179,107.682777 338.918213,104.841820
	C342.782928,101.123787 347.342072,98.112511 351.693207,94.920891
	C354.235931,93.055748 356.749207,93.106712 359.061218,95.570160
	C365.300751,102.218468 371.806305,108.637077 377.682190,115.589783
	C378.849762,116.971321 378.519806,120.816711 377.428223,122.671097
	C374.787689,127.156639 371.580200,131.407639 368.030457,135.221985
	C365.858063,137.556320 365.925079,139.239334 367.216187,141.737610
	C369.015991,145.220184 370.049591,149.191650 372.299255,152.313950
	C373.647583,154.185257 376.569366,155.408173 378.994781,155.916412
	C383.942200,156.953125 389.017212,157.542252 394.068512,157.866470
	C397.580811,158.091934 398.011017,159.909378 397.981750,162.783707
	C397.881683,172.616013 397.639496,182.463425 398.076324,192.277267
	C398.276886,196.783371 395.842560,198.289017 392.547577,198.845337
	C386.408508,199.881821 380.176697,200.368744 373.993713,201.083237
	C371.571014,205.639877 368.968018,210.131775 366.822754,214.832581
	C366.229431,216.132751 366.449860,218.411407 367.241211,219.625748
	C369.913239,223.726105 372.961517,227.587006 375.955505,231.470398
	C380.094147,236.838501 379.912170,239.378342 375.180634,244.294464
	C369.782440,249.903214 364.461273,255.587570 359.183075,261.309570
	C356.379181,264.349243 353.863739,265.120819 350.366791,261.954102
	C346.010468,258.009186 341.116089,254.663696 336.532440,250.962326
	C334.379242,249.223602 332.474487,248.968231 329.923218,250.404724
	C326.516418,252.322952 322.651886,253.443192 319.300201,255.437607
	C317.792297,256.334900 316.320007,258.422852 316.095276,260.136292
	C315.389038,265.520264 315.249023,270.981079 314.954926,276.415649
	C314.730682,280.558472 312.588104,282.875336 308.474213,282.918793
	C298.641998,283.022766 288.803650,283.127930 278.976410,282.884338
	C273.657867,282.752533 274.640747,277.890198 274.170013,274.748352
	C273.392456,269.558746 273.471954,264.245789 272.947540,259.009125
	C272.839905,257.934631 271.896393,256.515381 270.942719,256.026398
	C266.130157,253.558685 261.214905,251.281372 256.255066,249.122543
	C255.604736,248.839462 254.490570,249.621994 253.311279,250.159134
M335.053497,192.305374
	C337.328949,184.457443 338.019165,176.545013 336.060089,168.515259
	C331.171875,148.479828 315.570587,136.721954 296.619568,136.125626
	C275.198578,135.451584 259.042480,148.490692 254.142242,167.768738
	C250.619232,181.628632 253.192657,194.477921 263.099640,205.816498
	C274.218018,218.541550 287.870880,222.143997 303.712708,219.045715
	C318.695312,216.115494 328.718903,206.782440 335.053497,192.305374
z"/>
<path fill="#ffffff" opacity="0.000000" stroke="none"
	d="
M335.010590,192.707916
	C328.718903,206.782440 318.695312,216.115494 303.712708,219.045715
	C287.870880,222.143997 274.218018,218.541550 263.099640,205.816498
	C253.192657,194.477921 250.619232,181.628632 254.142242,167.768738
	C259.042480,148.490692 275.198578,135.451584 296.619568,136.125626
	C315.570587,136.721954 331.171875,148.479828 336.060089,168.515259
	C338.019165,176.545013 337.328949,184.457443 335.010590,192.707916
z"/>
</svg>
