<svg xmlns="http://www.w3.org/2000/svg" xml:space="preserve" viewBox="0 0 1370 698"><path fill="#E1251F" d="m770.98 532.862 5.763-3.902.18-.395c1.776-.836 3.537-2.352 5.333-2.396 9.784-.237 19.578-.123 29.368-.104 2.058.005 3.592-.04 5.05 2.517 1.25 2.193 4.946 2.925 7.415 4.527.77.5 1.062 1.731 1.054 3.179-.712 1.688-1.074 2.825-1.075 3.962-.024 27.216-.046 54.432.075 81.647.01 2.032 1.1 4.059 1.689 6.088 1.728.687 3.428 1.87 5.188 1.966 4.985.27 10.001-.044 14.99.195 1.183.056 3.312 1.393 3.299 2.11-.103 5.836 3.376 7.827 8.467 8.109l1.578 20.032c2.442.25 5.14.529 8.665.891v-5.664c.003-21.332.003-42.664.012-63.996.004-7.463.015-7.46 7.314-7.574.987-.016 1.972-.086 3.9-.173.266-3.725.781-7.417.712-11.098-.056-2.98.742-4.926 3.865-5.117 5.71-.349 6.98-3.71 6.242-8.656-.116-.772.12-1.597.218-2.672h10.791c3.113 5.006 6.077 9.34 8.54 13.942 1.008 1.882 1.115 4.327 1.304 6.545.21 2.466.048 4.965.048 8.067h13.857v12.768h11.054v-11.215h27.162c-.407 6.814.373 7.391 8.936 6.064v54.218h10.992V617.12h13.012v-15.741h25.801v15.398l9.011.478v19.491h11.825v-15.66c7.667 0 15.727-.095 23.777.133.88.025 2.081 1.778 2.46 2.948.428 1.327.098 2.899.098 4.588h4.928l.36-7.369 7.38-.673-2.263-28.69c-.647.258-.344.02-.068.05.797.081 1.584.27 2.198.384.922-3.63 1.722-7.302 2.793-10.892 2.92-9.778 8.366-18.013 17.208-23.09 6.01-3.45 6.537-8.78 7.49-14.34.138-.81.017-1.663.022-2.496.04-6.043 1.174-6.853 7.254-4.903-.09 1.506-.317 3.093-.257 4.669.289 7.67 2.788 13.617 10.096 17.861 10.133 5.885 15.116 15.974 17.752 27.069.759 3.192 1.107 5.999 4.263 6.15-.749 4.623-1.727 8.911-2.067 13.25-.35 4.46-.078 8.97-.078 13.95l7.96.54v15.817c9.535 0 18.488.015 27.442-.01 2.296-.008 4.295-.21 5.307 2.821 1.406 4.214 5.335 3.147 8.594 3.185 2.138.024 4.276.004 6.27.004l-.67-9.804h11.846l.631-7.161c8.484 0 17.063-.001 25.64.005.332 0 .915-.007.957.125 2.24 6.971 8.418 2.335 12.799 4.44v13.164h12v19.019h21.957l.46 9.232h18.56v20.606H96.426V675.81l12.935-1.096c2.776-6.436-2.325-14.547 4.462-22.132v-10.303l6.827-.432.804-5.7h22.225v-32.825l4.12-.555v-7.953c7.539 0 16.675-2.518 22.762.712 6.01 3.19 11.377.793 17.023 3.163l1.559 35.194h21.333l1.9 11.883h11.158v-34.409c8.806-.754 17.852-1.627 26.916-2.233 2.163-.145 4.167-.44 6.305 2.135 1.472 1.773 6.202.84 10.097 1.169v39.352h16.64c.537-3.842.959-7.713 1.685-11.525.216-1.13 1.136-2.843 1.995-3.02 6.017-1.246 12.09-2.26 18.175-3.126 2.268-.323 4.621-.053 7.379-.053l.541-7.705 5.606-.59v-27.392l10.58-.701-.484-5.31c6.599.64 11.672-5.434 18.351-3.277 2.509.81 4.839 2.487 7.376 2.826 5.38.72 10.843.814 16.27 1.184.474.032.938.2 1.815.395l1.531 57.322 7.344.447.545 7.56 5.862.265v-5.988c-.002-24.832.341-49.671-.254-74.489-.145-6.06 2.62-10.364 4.568-15.324 2.508-6.385 4.916-12.815 7.694-19.08.604-1.363 2.46-2.55 3.985-3.02 1.672-.518 3.63-.112 5.463-.112 11.899.003 11.835.03 16.46 11.126 1.764 4.233 3.7 8.424 5.952 12.41.993 1.759 2.97 2.961 5.53 5.395v70.669h14.43l1.546-31.534 12.559 1.121v-97.97l8.817-.439v-12.371h38.677v12.187l8.292.636v137.43H535.8v-44.716c2.547 0 4.516.243 6.398-.06 2.586-.414 6.295 2.301 7.57-2.577.116-.448 2.793-.289 4.283-.306 3.462-.038 6.926-.012 10.833-.012v-54.812h11.88v-6.227l23.872 1.286v-44.646c3.248-.123 3.304-.123 3.313 3.196.031 12.166.022 24.332.027 36.498v4.818l20.755-1.249v90.255h12.127V611.31l4.668-.529v-41.087c4.003-2.887 10.873 2.635 14.84-4.635 3.774 0 8.427-.244 13.025.151 1.36.117 2.565 2.04 4.71 3.879h6.686v40.262c5.214 2.054 4.624-1.268 4.372-4.418l9.61.544.486-6.333h15.625V575.45h27.683c.373 7.968.74 15.843 1.465 24.318 1.644.788 2.929 1.11 4.22 1.144 6.388.168 6.708.43 6.729 6.893.033 10.314-.045 20.629.064 30.941.022 2.102.666 4.197 1.024 6.295 0 0-.104.001.258.156 5.815.015 11.267-.124 16.72-.264 0 0 0 .11.15-.255.366-2.496.76-4.627.768-6.76.049-12.452.107-24.907-.026-37.358-.207-19.414-.655-38.825-.766-58.238-.018-3.15 1.177-6.307 1.812-9.46z"/><path fill="#E1241E" d="M366.392 384.746c-2.808.498-5.227 1.177-7.648 1.181-42.663.067-85.328-.117-127.99.153-13.163.083-20.843-9.226-20.915-20.695-.127-20.284-7.978-37.97-21.79-52.779-5.753-6.169-12.853-11.137-18.265-17.558-9.064-10.755-17.788-21.88-25.7-33.5-10.535-15.471-16.33-33.182-19.687-51.38-2.317-12.56-3.491-25.574-3.135-38.329.711-25.453 7.065-49.822 19.078-72.362a170.983 170.983 0 0 1 26.95-37.415c15.34-16.173 33.02-28.79 53.152-38.12 15.981-7.408 32.564-12.88 50.264-13.84 13.414-.728 26.923-1.632 40.29-.811 15.316.941 30.258 4.707 44.766 10.06 18.92 6.982 35.907 16.933 51.297 30.063 16.895 14.413 30.636 31.209 40.862 50.78 8.028 15.363 14.372 31.534 15.932 48.96 1.311 14.64 2.594 29.442 1.835 44.065-.934 17.993-5.856 35.365-13.298 51.934-9.907 22.057-24.063 41.012-41.614 57.475-12.18 11.425-22.262 24.33-27.61 40.25-2.312 6.885-3.771 14.333-3.991 21.575-.29 9.52-2.922 16.706-12.783 20.293m62.154-268.739c-9.824-20.918-24.268-38.256-42.433-52.224-23.071-17.74-49.506-28.142-78.451-30.587-20.4-1.722-40.782-.013-60.516 6.633-29.088 9.797-53.493 26.08-72.188 50.641-17.242 22.652-26.801 48.331-28.748 76.534-.788 11.427.553 23.098 1.86 34.55 2.151 18.832 9.315 35.932 19.573 51.827 8.281 12.83 18.54 23.743 29.858 33.983 6.732 6.092 11.93 13.94 17.497 21.244 9.588 12.575 15.908 26.618 17.98 42.42 1.334 10.17 2.327 11.024 12.847 11.025 11.831 0 23.662-.004 35.493-.004 21.829 0 43.657.005 65.486 0 4.56-.002 8.214-.97 8.334-6.719.058-2.747.722-5.501 1.294-8.214 4.818-22.864 16.958-41.563 33.022-58.049 7.642-7.843 16.109-15.106 22.556-23.846 23.198-31.445 34.275-66.404 29.16-105.923-1.936-14.946-6.119-29.01-12.624-43.29zM602.05 171.969c.027-36.126.054-71.757.096-107.387 0-.302.199-.603.524-1.528h14.583c10.323-.002 20.658-.314 30.967.06 17.281.628 32.848 5.904 45.05 18.759 8.626 9.087 13.243 20.377 14.475 32.55 1.532 15.131-.579 29.788-9.441 42.944-10.405 15.446-25.206 23.4-43.236 24.398-17.353.96-34.8.207-53.016.207 0-2.677 0-6.092-.002-10.003m24.908-39.469v27.56c6.736 0 12.716-.011 18.696.002 10.487.023 19.273-3.424 26.962-10.966 15.596-15.3 13.836-43.733-5.794-57.213-12.243-8.407-25.879-6.876-39.864-6.77V132.5zM665.28 229.277c14.524-13.129 31.054-18.154 50.185-15.35 19.974 2.926 34.467 13.724 42.936 31.406 11.288 23.568 9.37 47.157-6.013 68.32-10.015 13.78-24.77 20.633-42.105 21.33-13.487.543-26.125-1.947-37.455-9.622-15.084-10.217-22.457-24.8-24.887-42.576-2.238-16.374 1.473-31.167 10.187-44.882 1.926-3.03 4.582-5.595 7.152-8.626m7.764 55.754c.594 1.516 1.268 3.005 1.77 4.55 7.78 23.961 38.637 30.043 55.176 12.952 8.49-8.773 10.453-19.67 10.086-31.391-.596-19.054-15.68-38.4-39.599-34.176-14.527 2.565-22.301 11.148-26.555 24.378-2.429 7.554-2.387 15.147-.878 23.687zM956.948 288.967c6.223 10.58 12.362 20.796 18.49 31.017 2.23 3.72 4.434 7.456 7.123 11.982h-27.004c-7.351-12.471-15.1-25.358-22.57-38.404-3.397-5.93-8.728-2.602-13.778-3.886v42.58h-24.917V216.549c1.082-.16 2.176-.46 3.27-.464 15.318-.038 30.708-.98 45.936.189 19.985 1.534 31.993 12.424 33.432 33.837.643 9.554-.538 18.947-7 26.463-3.19 3.708-7.797 6.182-11.66 9.34-.72.59-.952 1.779-1.322 3.054m-37.975-47.262v27.306c7.13 0 13.765.366 20.34-.102 6.63-.472 12.23-6.34 12.717-12.332.857-10.574-1.999-16.628-10.218-18.01-6.951-1.168-14.227-.461-21.357-.384-.501.005-.984 1.67-1.482 3.522z"/><path fill="#E1231D" d="M598.431 447.83c-7.922-15.316-15.59-30.319-23.257-45.322l-.89.167v62.864h-20.956V364.056c7.597 0 15.216-.35 22.758.26 1.756.142 3.689 3.318 4.792 5.48 7.467 14.631 14.732 29.365 22.07 44.061.438.877.947 1.718 1.584 2.867l26.423-52.197h24.651v101.129h-20.832V400.67c-3.738 7.422-6.76 13.652-9.987 19.774-4.656 8.833-9.432 17.604-14.217 26.368-2.124 3.892-8.354 4.541-12.139 1.018z"/><path fill="#E1231E" d="M753.311 86.08c-.892 8.447-1.314 16.815-1.767 25.82h42.115v21.96h-41.427v25.942h48.157v22.887h-73.907V63.364h73.84V86c-15.334 0-30.937 0-47.01.08zM936.923 62.97c15.763-5.405 30.647-3.62 44.401 4.4 6.537 3.81 10.5 10.704 13.66 17.903l-19.905 11c-.72-1.187-1.689-2.265-2.089-3.524-3.784-11.923-23.79-13.927-32.167-6.955-7.534 6.27-6.182 14.753 1.807 18.826 8.648 4.408 18.251 6.93 27.403 10.368 12.438 4.67 23.004 11.203 25.979 25.598 4.322 20.91-5.576 37.56-26.26 43.183-13.894 3.777-27.8 3.612-41.397-2.576-10.348-4.71-16.635-12.702-21.534-22.739l17.79-12.238c3.037 4.034 5.597 8.237 8.927 11.699 8.103 8.423 27.204 8.151 34.1 1.06 5.535-5.693 5.29-14.894-1.778-18.364-8.855-4.347-18.46-7.154-27.71-10.708-8.95-3.439-17.042-7.643-22.451-16.428-9.489-15.409-3.838-38.442 12.278-46.872 2.726-1.426 5.687-2.404 8.946-3.634z"/><path fill="#E1241E" d="M850.006 293.475c.031-25.91.031-51.369.031-77.122h24.914v5.911c.001 22.667.052 45.333-.018 68-.037 12.253-3.394 23.837-12.346 32.125-5.645 5.227-13.385 9.294-20.867 11.18-11.68 2.942-23.72 2.116-35.366-2.398-13.915-5.393-22.985-15.717-23.896-29.83-1.817-28.14-1.399-56.426-1.91-84.972h24.411v13.203c.004 20.167-.44 40.347.169 60.495.404 13.343 6.567 20.846 17.495 21.818 14.238 1.267 22.888-.59 27.383-18.41zM893.944 174.92v7.706h-73.505V63.342h73.145v22.42h-48.322v26.181h41.978v21.906h-41.9v26.134h48.605v14.937z"/><path fill="#E1231D" d="M553.027 269v-52.942c2.22 0 3.994-.031 5.767.004 15.917.319 31.994-.642 47.706 1.317 17.93 2.234 28.406 14.727 29.43 33.714.56 10.384-.745 20.235-7.848 28.684-5.898 7.016-13.385 11.018-22.187 12.059-9 1.064-18.118 1.126-27.763 1.66v38.576h-25.105V269m49.773-29.68-24.476-1.912v34.314c.859.146 1.34.296 1.822.299 4.825.025 9.65.059 14.476.025 7.885-.056 14.847-4.637 16.312-11.019 2.05-8.926-.11-17.802-8.134-21.706z"/><path fill="#E1231E" d="m822.749 419.314-10.572-15.358v61.582h-21.634c.162-2.488.469-5.03.472-7.573.035-25.494.07-50.988-.023-76.481-.017-4.775-.67-9.545-.886-14.324-.116-2.581 1.097-3.177 3.782-2.879 5.473.608 11.015.6 17.207.876l42.345 64.167V364.76h20.255v101.174c-6.372 0-12.518.323-18.591-.203-1.742-.151-3.659-2.499-4.836-4.276-9.194-13.886-18.228-27.879-27.52-42.141z"/><path fill="#E1231D" d="M773.739 402.551c2.713 13.737 1.132 26.642-4.942 38.713-7.526 14.957-20 23.235-36.555 25.756-16.381 2.493-31.278-.657-44.257-11.114-8.297-6.684-13.194-15.641-15.482-25.988-4.353-19.681-.8-37.7 13.014-52.648 8.237-8.914 19.38-13.215 31.453-14.151 14.012-1.087 26.953 2.001 38.498 10.63 9.144 6.833 14.22 16.024 17.462 26.576.19.618.438 1.219.809 2.226m-20.71 15.7c1.166-17.234-8.409-33.388-25.94-35.944-10.118-1.475-24.584 4.345-29.575 13.57-5.916 10.936-6.411 22.407-2.433 33.848 6.623 19.042 30.31 22.588 43.372 14.392 9.287-5.828 13.02-14.71 14.576-25.867z"/><path fill="#E1241E" d="m974.054 415-.001-49.962c14.99 0 29.594-.194 44.186.119 4.314.093 8.785 1.102 12.857 2.587 10.359 3.777 15.247 12.399 16.626 22.531 1.315 9.67.815 19.701-5.892 27.717-3.047 3.642-7.481 6.125-11.778 9.523 7.271 12.206 14.917 25.04 22.892 38.424-7.698 0-14.515.123-21.32-.11-1.283-.043-2.976-1.212-3.702-2.355-5.699-8.968-11.32-17.99-16.743-27.128-4.955-8.35-4.868-8.439-15.13-6.794V465.6h-21.994l-.001-50.6m51.5-13.076c.265-1.28.663-2.549.775-3.842.552-6.384-3.157-13.218-8.253-13.897-7.124-.949-14.354-1.1-22.116-1.631 0 5.385-.092 9.837.016 14.285.392 16.04-3.638 14.313 15.176 14.036 5.71-.084 12.113-.853 14.401-8.951zM1160.716 398.72c4.372-11.62 8.524-22.908 12.585-33.954h23.057l38.288 101.159c-7.576 0-14.194.113-20.8-.123-.978-.035-2.294-1.55-2.775-2.67-2.122-4.952-3.859-10.071-6.05-14.989-.584-1.31-2.238-2.966-3.478-3.033-10.577-.57-21.175-.753-31.762-1.186-2.907-.119-4.371.66-5.226 3.776-1.674 6.105-4.017 12.026-6.116 18.118h-22.363c8.225-22.491 16.322-44.63 24.64-67.098m22.117-3.32-10.53 30.38h24.75l-12.714-34.81c-.477 1.26-.934 2.466-1.506 4.43z"/><path fill="#E1241F" d="M1086.18 447.036h40.532v18.5h-62.335V364.758h61.784v19.204c-12.785 0-25.921 0-39.738.363-.918 6.492-1.123 12.623-1.402 18.751-.17 3.737 1.737 4.946 5.224 4.881 6.328-.117 12.66-.016 18.991-.012 11.483.007 11.39 0 10.837 11.281-.165 3.361-1.455 4.84-4.822 4.802-6.83-.077-13.663-.118-20.49.036-2.943.067-5.875.658-8.812 1.011 0 0 0-.125-.139.241.031 7.485.2 14.602.37 21.72z"/><path fill="#E1241E" d="M236.206 401.03c40.133.001 79.791-.003 119.45.01 8.802.002 13.68 3.424 15.344 10.675 2.237 9.745-3.401 17.064-13.459 17.218-8.663.132-17.33.02-25.994.021-32.993.002-65.985.01-98.978.006-6.119-.001-11.516-3.63-13.475-9.004-1.898-5.208-.248-12.927 4.56-15.717 3.476-2.016 8.013-2.204 12.552-3.208z"/><path fill="#E1231D" d="m900.999 384.952-13.649-.001v-20.204h75.374v20.133h-26.651v80.7h-21.916v-80.628H901z"/><path fill="#E1241E" d="M339.19 446.79c6.355 9.742 1.647 19.03-8.408 21.761-6.52 1.771-11.44 5.795-15.604 10.784-9.066 10.86-31.398 10.565-41.04.258-5.191-5.549-10.415-10.59-18.564-12.09-5.563-1.023-10.083-11.222-8.377-16.765 1.546-5.023 5.804-6.592 10.395-6.619 24.989-.142 49.979-.133 74.967.028 2.128.014 4.246 1.528 6.632 2.643z"/><path fill="#E0231D" d="M1266.94 393v52.958h38.756v19.665h-60.262v-100.86h21.506V393z"/><path fill="#DF201B" d="M1092.897 352.955h-10.748c3.529-7.516 6.77-14.576 10.215-21.534.375-.758 1.919-1.306 2.93-1.321 7.582-.109 15.168-.06 23.326-.06-6.451 7.75-12.303 15.141-18.654 22.074-1.144 1.248-4.348.61-7.069.841zM798.243 33.222c-5.022 5.712-9.716 11.24-14.633 16.562-1.031 1.116-2.848 2.003-4.356 2.09-4.634.27-9.294.098-13.99.098 3.084-6.612 6.112-13.485 9.549-20.148.693-1.345 2.903-2.614 4.466-2.68 6.814-.292 13.648-.126 21.068-.126-.725 1.54-1.29 2.743-2.104 4.204z"/><path fill="#DA0000" d="M564.024 182.992h-10.71V63.426h25.361v119.567h-14.651m-3.34-.993c3.832 0 7.675-.168 11.496.046 4.316.243 5.951-1.522 5.854-5.847-.207-9.162-.073-18.33-.072-27.496.003-25.664.018-51.328.008-76.992-.002-7.636-.09-7.693-7.909-7.715-3.333-.009-6.682.19-9.995-.068-4.651-.363-6.079 1.706-6.065 6.153.109 35.33.102 70.66.013 105.989-.011 4.17 1.288 6.397 6.67 5.93z"/><path fill="#DB0706" d="M770.645 532.91c-.3 3.105-1.495 6.262-1.477 9.412.11 19.413.559 38.824.766 58.238.133 12.451.075 24.906.026 37.359-.008 2.132-.402 4.263-.823 6.76-.18-2.812-.068-5.99-.147-9.163-.297-11.769-.851-23.535-.948-35.305-.161-19.656-.037-39.314-.059-58.971-.002-2.317-.327-4.646-.142-6.94.041-.51 1.606-.897 2.804-1.39z"/><path fill="#DA0000" d="M1086.423 425.043c2.463-.32 5.395-.912 8.338-.979 6.827-.154 13.66-.113 20.49-.036 3.367.038 4.657-1.44 4.822-4.802.553-11.28.646-11.274-10.837-11.281-6.33-.004-12.663-.105-18.991.012-3.487.065-5.394-1.144-5.224-4.88.279-6.129.484-12.26.945-18.748.224 7.096.224 14.55.224 22.606h35.543v18.075c-11.68 0-23.258 0-35.31.033z"/><path fill="#DB0706" d="M825.902 627.555c-.658-1.6-1.75-3.626-1.759-5.658-.121-27.215-.099-54.431-.075-81.647 0-1.137.363-2.274.752-3.757.298 3.691.4 7.729.383 12.604-.09 11.524-.063 22.211-.035 32.898.057 3.081.114 6.163.061 10.099.13 10.218.372 19.583.614 28.947.043 2.028.086 4.056.059 6.514zM752.034 644.57c-.328-1.627-.972-3.722-.994-5.824-.11-10.312-.031-20.627-.064-30.94-.02-6.464-.34-6.726-6.729-6.894-1.291-.034-2.576-.356-4.022-.77 3.561-.634 7.282-1.041 11.78-1.533 0 15.63 0 30.56.03 45.96z"/><path fill="#E3433D" d="M825.502 581.735c-.362-10.427-.39-21.114-.377-32.266.32 2.902.802 6.267.837 9.636.077 7.456-.07 14.914-.46 22.63zM825.898 620.57a2202.73 2202.73 0 0 1-.74-28.086c.307 5.077.648 10.615.817 16.16.116 3.814-.006 7.636-.077 11.926z"/><path fill="#DA0000" d="M1086.105 446.568c-.094-6.65-.264-13.767-.232-21.252.187 6.683.172 13.734.232 21.252z"/><path fill="#DB0706" d="M768.57 644.963c-4.98.11-10.433.249-16.249.182 5.018-.189 10.398-.17 16.25-.182z"/><path fill="#E1261F" d="M560.215 181.997c-4.913.47-6.212-1.758-6.201-5.928.089-35.33.096-70.66-.013-105.989-.014-4.447 1.414-6.516 6.065-6.153 3.313.259 6.662.06 9.995.068 7.82.022 7.907.079 7.91 7.715.009 25.664-.006 51.328-.01 76.992 0 9.165-.134 18.334.073 27.496.097 4.325-1.538 6.09-5.854 5.847-3.821-.214-7.664-.045-11.965-.048z"/><path fill="#E1251F" d="M253.311 250.16c-5.382 4.359-10.334 8.684-15.687 12.438-1.42.996-4.984 1.157-6.008.138-6.788-6.757-13.105-13.984-19.675-20.964-2.975-3.161-1.9-5.781.442-8.666 3.299-4.064 6.387-8.299 9.532-12.486.585-.779 1.63-1.923 1.41-2.485-2.105-5.36-4.024-10.877-6.938-15.791-.964-1.625-4.617-1.856-7.116-2.326-4.326-.815-8.694-1.536-13.078-1.885-3.318-.263-4.14-2.074-4.139-4.877.005-11.155.002-22.31.002-34.375 6.492-.96 12.874-1.916 19.26-2.844 3.244-.471 5.845-1.403 6.867-5.184.712-2.634 2.247-5.138 3.814-7.427 2.526-3.688 1.211-6.42-1.324-9.41-3.162-3.728-5.701-8.004-9-11.591-2.33-2.533-1.672-4.597.06-6.483 6.386-6.957 12.777-13.935 19.618-20.43 1.325-1.258 5.354-1.387 6.978-.302 5.71 3.81 10.915 8.378 16.367 12.703l18.008-8.627c.437-5.641.94-11.554 1.342-17.474.4-5.883 1.276-6.761 7.138-6.763 9-.002 18-.033 27 .01 5.282.025 6.57 1.47 6.805 6.782.197 4.443.48 8.895 1.047 13.302.377 2.927 1.299 5.31 5.091 6.117 3.254.693 6.238 2.854 9.215 4.585 3.203 1.861 5.623 1.838 8.576-1.003 3.865-3.718 8.424-6.73 12.775-9.921 2.543-1.865 5.056-1.814 7.368.65 6.24 6.647 12.745 13.066 18.621 20.019 1.168 1.381.838 5.227-.254 7.081-2.64 4.486-5.848 8.737-9.398 12.551-2.172 2.334-2.105 4.017-.814 6.516 1.8 3.482 2.834 7.454 5.083 10.576 1.349 1.871 4.27 3.094 6.696 3.602 4.947 1.037 10.022 1.626 15.074 1.95 3.512.226 3.942 2.043 3.913 4.918-.1 9.832-.343 19.68.094 29.493.2 4.506-2.233 6.012-5.528 6.568-6.14 1.037-12.371 1.524-18.554 2.238-2.423 4.557-5.026 9.049-7.171 13.75-.594 1.3-.373 3.578.418 4.793 2.672 4.1 5.72 7.961 8.715 11.844 4.138 5.369 3.956 7.908-.775 12.824a1101.931 1101.931 0 0 0-15.998 17.016c-2.804 3.04-5.32 3.81-8.816.644-4.357-3.945-9.25-7.29-13.835-10.992-2.153-1.738-4.058-1.994-6.609-.557-3.407 1.918-7.271 3.038-10.623 5.033-1.508.897-2.98 2.985-3.205 4.698-.706 5.384-.846 10.845-1.14 16.28-.224 4.142-2.367 6.46-6.48 6.503-9.833.104-19.671.209-29.499-.035-5.318-.131-4.335-4.994-4.806-8.136-.778-5.19-.698-10.502-1.222-15.739-.108-1.074-1.052-2.494-2.005-2.983-4.813-2.467-9.728-4.745-14.688-6.903-.65-.284-1.764.499-2.944 1.036m81.742-57.854c2.276-7.848 2.966-15.76 1.007-23.79-4.888-20.035-20.49-31.793-39.44-32.39-21.421-.673-37.578 12.366-42.478 31.644-3.523 13.86-.95 26.709 8.958 38.047 11.118 12.726 24.77 16.328 40.613 13.23 14.982-2.93 25.006-12.264 31.34-26.74z"/></svg>
