<svg xmlns="http://www.w3.org/2000/svg" xml:space="preserve" viewBox="0 0 2100 600"><path fill="#E1251F" d="M1561.833 497.952c1.719.698 3.409 1.9 5.16 1.997 4.984.273 10-.041 14.988.195 1.194.057 3.337 1.367 3.33 2.085-.053 5.776 3.29 7.895 8.463 8.11l1.58 20.047 8.665.916v-5.649c.003-21.331.003-42.662.012-63.994.004-7.467.015-7.464 7.782-7.608.822-.016 1.642-.087 3.42-.185.267-3.685.773-7.372.728-11.052-.035-2.933.644-4.936 3.832-5.14 5.633-.36 7.062-3.631 6.27-8.631-.122-.773.116-1.603.213-2.694h10.833c3.072 4.962 6.023 9.303 8.482 13.907 1.006 1.884 1.132 4.32 1.325 6.535.214 2.468.049 4.97.049 8.077h13.832v12.78h11.054v-11.19h27.152c-.353 6.787.407 7.352 8.94 6.063v54.192h10.996v-29.566h13.01v-15.755h25.802v15.391l9.01.456v19.49h11.851V491.08c7.65 0 15.698-.094 23.736.133.893.025 2.116 1.747 2.5 2.91.436 1.319.1 2.893.1 4.623h4.92l.36-7.318 6.803-.752c0-6.917.125-13.712-.106-20.495-.045-1.343-1.66-2.565-2.173-3.98-.414-1.144-.257-2.494-.354-3.753l3.339-.22c2.368-14.247 7.633-27.242 21.413-34.688 4.944-2.672 4.186-7.546 5.66-11.43 1.336-3.526-.557-7.564 2.78-11.41 1.88-2.17.338-7.308.338-11.952 2.894 5.047-2.346 11.44 4.042 14.259 0 3.087-.947 6.49.207 8.879 2.077 4.298 2.553 9.593 7.824 12.263 11.69 5.923 16.876 16.638 20.044 28.718.58 2.213 2.186 4.157 3.397 6.37l-2.136 26.39 8.492.614v15.8c7.806 0 15.225-.029 22.643.011 4.644.026 9.93-1.412 11.842 5.168.153.524 1.994.75 3.06.78 3.465.096 6.934.036 10.116.036l-.616-9.836h11.91l.532-6.748h26.852c1.927 7.161 8.408 1.677 12.633 4.377v13.015h12v19.016h21.93l.456 9.215h18.542v20.608H832.423V545.81l13.624-1.155c0-3.682-.4-7.507.123-11.2.441-3.122-2.884-8.005 3.654-8.957v-12.22l6.829-.431.8-5.702h22.227v-32.824l4.118-.554v-7.954c7.54 0 16.674-2.516 22.763.712 6.01 3.187 11.375.798 17.023 3.163l1.56 35.192h21.333l1.9 11.885h11.156v-34.41c8.802-.753 17.847-1.627 26.91-2.23 2.159-.143 4.17-.46 6.308 2.131 1.462 1.772 6.201.84 10.096 1.17v39.35h16.644c.536-3.831.959-7.701 1.685-11.513.216-1.133 1.13-2.85 1.987-3.028 6.017-1.246 12.089-2.26 18.175-3.126 2.269-.323 4.622-.053 7.39-.053l.536-7.708 5.601-.586v-27.4l10.582-.684-.452-5.044c5.232-1.22 10.23-2.772 15.342-3.428 2.835-.364 6.598-1.716 8.484 2.5.198.444 1.862.248 2.848.319 5.566.4 11.133.79 17.106 1.214l1.538 57.567 7.347.452.535 7.555 5.868.27v-5.976c-.005-22.165-.029-44.33-.003-66.494.01-8.026-.64-15.912 4.095-23.453 3.586-5.712 5.134-12.68 7.913-18.945.605-1.364 2.496-2.828 3.951-3.013 3.444-.439 7.044.281 10.466-.232 5.084-.762 7.294 1.685 9.057 5.955 2.484 6.02 5.348 11.9 8.38 17.665.93 1.766 2.949 2.96 5.539 5.442v70.627h14.426l1.552-31.537 12.54 1.136v-97.969l8.99-.45V369.32h38.523v12.304l8.265.68v137.41h14.197v-44.704c2.366 0 4.346.285 6.205-.069 2.559-.487 6.348 2.451 7.575-2.56.106-.432 2.792-.296 4.282-.313 3.465-.04 6.932-.013 10.842-.013v-54.79h11.888v-6.246l23.876 1.284v-44.613c3.257-.191 3.316-.191 3.325 3.121.033 12.166.023 24.331.028 36.497v4.851l20.731-1.24v90.252h12.123v-19.857l4.696-.54v-41.069c3.999-3.242 11.463 3.382 14.45-4.656 3.735 0 7.585-.273 11.369.11 2.005.204 3.895 1.546 5.837 2.374l-.4 1.522h7.98v40.293c5.154 2.003 4.678-1.192 4.365-4.41l9.673.515.45-6.267h15.594v-23.72h28.112c0 6.648.096 13.266-.043 19.879-.063 3.013.346 4.586 4.052 3.781 2.674-.58 5.577-.113 8.8-.113v45.633h16.517V402.908l8.66-3.583-.185-.705c1.945-.855 3.872-2.395 5.84-2.448 9.492-.259 18.994-.13 28.494-.108 2.182.005 3.978-.283 5.573 2.516 1.255 2.2 4.982 2.924 7.462 4.534.759.492 1.024 1.745 1 3.202-.696 1.69-1.037 2.829-1.038 3.967-.02 27.194-.041 54.388.08 81.581.01 2.032 1.086 4.059 1.666 6.088z"/><path fill="#E0231D" d="M927.861 350.81c-.603-.256-1.185-.597-1.813-.753-2.216-.552-5.562-.31-6.467-1.69-2.688-4.099-4.79-8.698-6.39-13.353-1.039-3.023-1.293-6.526-1.032-9.744.668-8.228-3.616-14.958-6.628-21.893-1.958-4.51-6.108-8.097-9.406-11.988-4.093-4.831-8.236-9.627-12.531-14.278-1.622-1.756-3.884-2.91-5.579-4.614-3.223-3.242-6.444-6.525-9.294-10.088-2.223-2.78-3.906-5.995-5.79-9.04-3.265-5.279-7.172-10.287-9.596-15.93-4.25-9.892-7.723-20.13-11.267-30.312-5.626-16.167-4.062-32.992-3.877-49.623.06-5.281 1.343-10.704 2.957-15.78 3.511-11.046 7.166-22.087 11.589-32.788 3.174-7.681 7.8-14.716 13.057-21.284 3.098-3.872 5.375-8.43 8.653-12.117 1.89-2.126 6.615-1.824 4.932-6.628 1.478-.235 3.032-.008 3.727-.675 2.934-2.817 5.477-6.045 8.441-8.828 1.53-1.436 3.644-2.246 5.489-3.35 3.728-2.23 7.383-4.592 11.192-6.673 6.27-3.426 12.413-7.23 19.01-9.88 15.656-6.29 31.986-9.443 48.906-10.68 14.457-1.056 28.253 1.285 42.297 3.755 12.818 2.255 24.667 6.954 36.09 12.566 8.193 4.025 15.882 9.44 22.99 15.224 12.29 10 23.455 21.188 32.099 34.694 8.44 13.188 14.627 27.398 18.911 42.34 2.057 7.171 2.898 14.819 3.322 22.306.948 16.752.382 33.55-4.013 49.815-3.258 12.058-7.838 23.732-14.365 34.559-9.254 15.348-21.146 28.436-33.904 40.86-8.289 8.071-14.43 17.785-18.225 28.57-2.257 6.415-2.446 13.583-3.359 20.44-.776 5.831-1.714 11.439-8.741 14.076-1.197.41-1.737.718-2.278 1.026 0 0 .015-.067-.24-.016-.786.293-1.317.534-1.848.775 0 0-.346.145-.933.02-2.385-.385-4.183-.867-5.982-.87-34.737-.043-69.474-.06-104.21.052-1.967.006-3.93 1.172-5.894 1.797M890.057 91.765c-.148.634-.123 1.391-.472 1.881-5.422 7.6-11.381 14.87-16.178 22.84-3.146 5.229-4.312 11.607-6.923 17.21-5.006 10.743-5.851 22.291-6.318 33.73-.36 8.817 1.22 17.704 1.774 26.57.825 13.206 6.288 24.944 12.108 36.373 6.19 12.152 15.66 21.926 25.217 31.6 7.07 7.158 13.663 14.865 19.786 22.85 4.191 5.467 7.966 11.527 10.54 17.883 2.657 6.559 3.952 13.74 5.233 20.759.808 4.434 3.159 5.653 7.122 5.614 7.329-.073 14.659-.018 21.989-.018 21.656 0 43.311-.009 64.967.002 3.949.002 7.186-.681 7.439-5.682.113-2.245.831-4.469 1.355-6.684 2.866-12.113 7.427-23.506 14.78-33.628 2.83-3.896 5.63-7.949 9.118-11.208 12.123-11.325 24.055-22.952 32.098-37.524 9.424-17.072 16.827-35.039 16.373-55.209-.173-7.683-.022-15.374-.06-23.061a10.368 10.368 0 0 0-.429-2.924c-2.844-9.366-5.472-18.809-8.68-28.05-3.122-8.993-8.747-16.64-14.464-24.15-1.096-1.441-2.604-2.562-3.846-3.902-.762-.822-1.321-1.83-2.073-2.663-.953-1.056-2.07-1.963-3.007-3.031-2.58-2.943-4.806-6.28-7.73-8.815-3.085-2.676-6.92-4.464-10.232-6.905-2.897-2.134-5.186-5.342-8.332-6.843-9.227-4.402-18.765-8.147-28.149-12.226-18.307-7.957-37.73-6.412-56.658-5.12-14.108.963-27.69 6.49-40.469 13.068-13.336 6.864-24.945 16.056-35.879 27.263z"/><path fill="#E1241E" d="m105.049 184-.001-21.942c9.378 0 18.314-.032 27.25.008 12.355.055 24.725-.701 36.87 2.847 17.171 5.017 30.219 14.786 36.907 31.68 8.234 20.803 7.25 41.155-5.127 60.184-10.011 15.39-25.068 23.051-42.932 23.997-17.352.918-34.79.199-52.967.199V184m24.906 11.522v63.538c6.75 0 12.73-.009 18.711.002 10.486.018 19.271-3.433 26.96-10.975 15.575-15.281 13.833-43.733-5.817-57.21-12.251-8.4-25.88-6.867-39.853-6.763v11.408zM191.02 314.97c34.521-10.886 68.388 9.371 75.678 44.11 3.861 18.395 1.11 36.23-10.28 52.03-8.248 11.443-19.223 18.897-32.978 21.517-19.214 3.66-37.082.97-52.655-12.262-12.215-10.378-17.899-23.623-19.807-39.12-2.625-21.317 3.302-39.806 19.026-54.281 5.701-5.248 13.674-8.03 21.017-11.994m44.945 83.348c7.507-11.931 9.013-24.602 5.204-38.156-4.1-14.588-13.79-22.858-28.45-24.684-10.953-1.365-21.082 2.151-28.24 10.7-11.73 14.008-12.644 33.282-4.093 48.333 6.223 10.952 16.225 16.683 29.355 16.631 10.688-.042 18.942-4.506 26.224-12.824zM441.29 402.628c-2.074-3.761-3.864-7.256-5.843-10.642-3.276-5.608-8.518-1.976-13.29-3.2v42.485h-24.87V315.054h20.538c7.992-.002 15.988.144 23.975-.045 10.573-.25 20.112 2.719 28.054 9.576 6.338 5.474 9.084 13.367 9.927 21.327 1.099 10.383.54 21.021-6.753 29.475-3.698 4.287-8.634 7.505-13.49 11.612l26.018 43.986H458.91c-5.692-9.162-11.556-18.602-17.62-28.357m-7.809-34.576c2.662-.006 5.34.166 7.984-.053 6.905-.572 13.415-6.082 13.612-13.062.307-10.838-3.024-16.908-11.313-17.777-7.027-.736-14.192-.152-21.472-.152v31.044h11.19z"/><path fill="#E1231D" d="M122.339 486.339c4.08-7.907 7.957-15.497 11.693-22.814h24.66v101.049h-20.925v-64.746c-2.637 5.114-4.695 9.191-6.83 13.227-5.823 11.004-11.872 21.895-17.416 33.037-1.914 3.848-4.853 2.473-7.592 2.886-2.792.421-3.919-.985-5.1-3.352-6.883-13.802-13.985-27.495-21.032-41.216-.507-.988-1.155-1.904-2.494-4.086v64.208H56.334V463.055c7.584 0 15.203-.349 22.744.26 1.758.142 3.695 3.314 4.798 5.475 7.468 14.632 14.733 29.367 22.071 44.065.438.877.946 1.719 1.63 2.952 4.945-9.902 9.75-19.527 14.762-29.468z"/><path fill="#E1241E" d="M254.983 256.743c1.645 1.089 3.27 2.214 4.905 2.23 14.479.138 28.959.08 43.586.08v22.67H229.38V162.426h74.063v22.5h-48.19v25.922h41.382v21.974h-41.667c0 8.223 0 15.833.015 23.921z"/><path fill="#E1231E" d="M435.224 281.913c-12.083-4.46-20.043-12.708-25.347-24.467l18.448-12.737c3.168 7.601 7.623 13.551 15.35 16.646 9.003 3.607 21.654 2.057 27.355-3.845 5.108-5.288 4.668-14.532-1.85-17.674-9.038-4.357-18.747-7.313-28.139-10.946-8.947-3.46-17.103-7.68-22.388-16.517-8.557-14.311-4.348-34.976 8.013-43.715 11.451-8.096 23.752-10.76 37.64-8.845 9.785 1.348 18.705 3.809 25.292 11.472 3.266 3.8 5.824 8.207 8.937 12.675l-20.42 11.296c-.736-1.039-1.474-1.87-1.98-2.826-6.159-11.625-21.1-15.703-31.754-8.039-7.808 5.617-7.41 14.871 1.512 19.355 8.676 4.36 18.304 6.797 27.43 10.297 12.212 4.683 22.55 11.226 25.705 25.338 4.39 19.636-5.03 36.537-24.26 42.653-13.035 4.146-26.107 4.415-39.544-.12z"/><path fill="#E1241E" d="M353.053 329.01v-13.66h24.899v5.42c0 23.162.53 46.34-.152 69.483-.63 21.385-10.303 36.651-32.086 42.136-15.24 3.838-30.87 2.829-44.538-6.46-9.404-6.39-15.613-15.606-15.96-27.04-.83-27.41-.777-54.847-1.066-82.273-.003-.302.193-.607.406-1.233h23.404v19.14c.003 18.164-.332 36.336.14 54.487.271 10.387 4.299 19.064 14.643 21.23 16.417 3.436 29.772-1.442 30.209-21.745.423-19.654.097-39.324.1-59.485zM379.998 281.946h-56.66V162.383h73.228v22.37H348.26v26.036h41.967v22.127H348.3v26.001h48.268v23.029h-16.57z"/><path fill="#E1231E" d="M314.964 517.017v47.641H293.47c.2-2.488.54-4.753.543-7.018.037-26.148.066-52.297-.019-78.445-.014-4.273-.65-8.542-.875-12.819-.152-2.872.994-3.32 3.993-2.98 5.316.604 10.75.17 16.585.17l42.734 64.743v-64.557h20.277v101.175c-6.26 0-12.548.367-18.743-.231-1.789-.173-3.621-2.914-4.906-4.832-11.728-17.514-23.336-35.108-34.99-52.67-.762-1.148-1.621-2.23-3.106-4.261v14.084z"/><path fill="#E1231D" d="M231.625 462.032c9.056 1.498 17.173 4.124 24.566 9.002 11.699 7.72 17.854 18.996 20.681 32.195 3.405 15.896-.118 30.857-9.17 44.005-6.79 9.863-16.95 15.8-28.8 18.265-15.543 3.233-30.35 1.313-43.766-7.546-14.07-9.29-20.14-23.044-21.094-39.461-.693-11.927 1.556-23.015 7.88-33.398 7.56-12.409 18.485-19.53 32.503-21.958 5.479-.95 11.153-.767 17.2-1.104m-28.685 75.423c15.448 16.285 44.809 12.371 51.726-12.386 4.638-16.6-2.994-40.706-24.102-43.525-17.194-2.295-33.109 9.372-34.584 27.183-.834 10.061.23 19.73 6.96 28.728z"/><path fill="#E1251F" d="M106.003 315.179c6.445 2.567 13.168 4.606 19.267 7.828 8.71 4.601 12.044 13.586 13.347 22.337 1.438 9.646 1.351 19.864-4.31 28.712-2.065 3.226-4.937 5.935-8.012 9.052-.818.437-1.067.703-1.315.969 0 0 .015-.082-.255 0-1.093.72-1.916 1.36-2.74 2 0 0 .008-.077-.245-.001-.758.382-1.264.69-1.77.997 0 0 .018-.084-.23.002-.75.405-1.251.724-1.754 1.044 0 0 .009-.097-.355-.08-10.9.973-21.423 2.145-31.978 2.786-4.37.265-5.773 1.97-5.697 6.134.172 9.321-.026 18.649.063 27.973.034 3.539-1.303 5.243-4.99 5.12-4.158-.138-8.332-.173-12.485.03-4.168.202-5.524-1.679-5.515-5.664.08-34.301.08-68.603-.004-102.905-.01-4.089 1.58-5.613 5.635-5.565 12.154.144 24.311.09 36.466.009 2.294-.016 4.585-.507 6.877-.778m-25.062 43.308v12.574c5.366 0 9.995.004 14.625-.001 12.04-.014 17.078-4.114 19.316-15.714 1.393-7.217-5.17-17.558-12.322-18.21-7.023-.64-14.15-.14-21.623-.14 0 7.262 0 13.878.004 21.491z"/><path fill="#E1241E" d="M540.646 539.345c5.12 8.525 10.034 16.74 15.331 25.591-7.837 0-14.787.104-21.728-.103-1.135-.033-2.617-1.187-3.28-2.239-5.667-8.98-11.306-17.984-16.706-27.127-4.88-8.265-4.743-8.346-15.097-7.047v36.117h-21.811v-100.5c14.697 0 29.403-.012 44.11.004 17.112.018 29.33 12.353 29.547 29.398.107 8.403-.44 16.653-6.103 23.246-3.187 3.71-7.558 6.403-11.79 9.877 2.22 3.779 4.771 8.126 7.527 12.783m-41.684-45.829c-.001 3.822.2 7.657-.062 11.46-.257 3.75 1.527 5.174 4.9 5.024 5.245-.233 10.502-.458 15.719-1.015 5.673-.604 9.58-5.576 9.963-12.152.35-6.001-3.336-12.886-8.168-13.566-7.239-1.019-14.602-1.161-22.352-1.707v11.956zM721.907 523.089c5.153 13.937 10.251 27.483 15.656 41.843-7.422 0-14.01.113-20.588-.118-1.014-.035-2.408-1.456-2.882-2.557-2.13-4.947-3.825-10.085-6.054-14.983-.635-1.396-2.486-3.08-3.867-3.16-10.076-.596-20.19-.58-30.257-1.267-4.23-.288-5.85 1.462-6.907 5.072-1.647 5.63-3.59 11.175-5.446 16.874h-22.554l37.27-101.02h22.938c7.463 19.427 15.05 39.175 22.691 59.316m-37.947-23.59-8.586 25.263h24.672l-12.715-34.813c-1.112 2.978-2.19 5.866-3.371 9.55z"/><path fill="#E22620" d="M588.975 483.175v22.724h35.593v17.897h-35.619c0 7.295 0 14.201.359 21.795 9.656.911 18.953 1.245 28.252 1.328 11.845.105 11.744.014 11.404 11.793-.109 3.742-1.338 5.402-5.284 5.371-16.658-.128-33.317-.152-49.974.003-4.408.04-5.769-1.743-5.753-5.957.107-29.151.112-58.303-.008-87.455-.018-4.382 1.676-5.814 5.924-5.767 14.324.159 28.652-.011 42.977.067 12.172.066 11.109-1.73 11.238 11.808.037 3.885-1.548 5.332-5.364 5.275-9.16-.139-18.324-.112-27.484.012-2.092.028-4.175.72-6.261 1.106z"/><path fill="#E1231D" d="M390.06 477.864v-14.09h75.562v19.946h-26.57v80.96H417.13v-80.623h-27.07v-6.193z"/><path fill="#E0221D" d="M949 386.943c-5.164.004-9.83.002-14.494.016-10.965.034-16.241-7.11-12.759-17.286 2.105-6.15 4.437-7.589 13.292-7.619 19.826-.068 39.652-.03 59.478-.033 14.828-.002 29.656-.036 44.484.017 5.775.02 10.78 3.633 11.954 8.39 1.559 6.32-.046 12.276-4.571 14.446-2.688 1.288-5.923 1.983-8.917 1.998-29.322.138-58.644.076-88.467.07z"/><path fill="#E0231D" d="M748.052 502v-38.237h22v81.184h38.638v19.67h-60.637V502zM997.319 434.853c-2.16.417-3.973.577-5.68 1.091-6.923 2.086-13.377-1.153-20.051-1.785-.947-.09-1.592-2.181-2.603-3.095-1.19-1.074-2.618-1.885-3.96-2.784-.467-.312-1.425-.563-1.416-.816.189-5.397-4.433-5.2-7.617-6.448-4.101-1.608-8.554-2.729-9.89-7.67-2.91-10.77-.136-14.294 11.072-14.302 19.654-.012 39.31.122 58.96-.096 5.195-.058 9.029 1.869 10.413 6.51 1.273 4.264 1.204 8.945-3.961 11.523-3.149 1.572-6.37 3.14-9.176 5.223-5.376 3.991-10.48 8.349-16.091 12.649z"/><path fill="#DF201B" d="M621.087 430.194c-5.789 6.762-11.368 13.255-17.106 19.604-.943 1.043-2.555 1.988-3.907 2.062-4.64.252-9.3.096-14.904.096 3.507-7.505 6.753-14.527 10.104-21.499.3-.625 1.294-1.322 1.951-1.308 8.008.17 16.013.466 23.862 1.045zM274.343 138.29c1.833-9.315 7.526-11.592 15.907-10.38 4.186.605 8.53.105 13.885.105-3.321 4.209-5.968 7.656-8.719 11.019-2.084 2.547-4.301 4.985-6.456 7.475-2.486 2.872-4.922 5.325-9.442 4.582-3.653-.6-7.483-.122-11.399-.122 2.011-4.14 4.009-8.252 6.224-12.679z"/><path fill="#DB0202" d="M589.443 483.105c1.618-.316 3.701-1.008 5.793-1.036 9.16-.124 18.324-.15 27.484-.012 3.816.057 5.401-1.39 5.364-5.275-.13-13.537.934-11.742-11.238-11.808-14.325-.078-28.653.092-42.977-.067-4.248-.047-5.942 1.385-5.924 5.767.12 29.152.115 58.304.008 87.455-.016 4.214 1.345 5.997 5.753 5.957 16.657-.155 33.316-.131 49.974-.003 3.946.03 5.175-1.63 5.284-5.37.34-11.78.441-11.689-11.404-11.794-9.299-.083-18.596-.417-28.247-.87 13.078-.232 26.508-.232 40.316-.232v18.85h-62.363V463.77h61.967v19.264c-12.92 0-26.121 0-39.79.07zM81.994 204v77.671H56.396V162.332h25.598V204m-24.913 38.5c-.001 10.994.095 21.99-.053 32.981-.056 4.103 1.587 5.753 5.644 5.544 3.654-.188 7.327-.023 10.991-.034 7.109-.02 7.295-.205 7.296-7.284.005-31.816.005-63.631.005-95.447 0-3.498-.081-6.997-.008-10.493.07-3.381-1.5-4.842-4.851-4.768-3.996.088-7.995-.022-11.993-.01-6.704.018-7.039.336-7.041 7.05-.009 23.82.004 47.64.01 72.461zM105.538 315.115c-1.827.335-4.118.826-6.412.842-12.155.08-24.312.135-36.466-.009-4.054-.048-5.646 1.476-5.635 5.565.084 34.302.083 68.604.004 102.905-.009 3.985 1.347 5.866 5.515 5.663 4.153-.202 8.327-.167 12.485-.028 3.687.122 5.024-1.582 4.99-5.121-.09-9.324.11-18.652-.063-27.973-.076-4.164 1.328-5.869 5.697-6.134 10.555-.641 21.078-1.813 32.026-2.783-6.223 1.313-12.81 3.046-19.508 3.834-5.402.635-10.938.128-16.998.128v39.099H56.404V315.05c16.182 0 32.425 0 49.134.064zM928.337 350.893c1.489-.708 3.451-1.874 5.417-1.88 34.737-.112 69.474-.095 104.211-.052 1.799.003 3.597.485 5.797.896-.967.485-2.335 1.107-3.703 1.108-37.082.042-74.164.021-111.722-.072zM1561.904 497.538c-.65-1.615-1.727-3.642-1.737-5.674-.121-27.193-.1-54.387-.08-81.58 0-1.14.342-2.277.714-3.76.306 3.656.421 7.658.34 12.477-.174 11.592-.15 22.366-.127 33.141.114 3.007.227 6.014.144 9.852.1 10.307.398 19.784.696 29.261.04 1.956.08 3.913.05 6.283z"/><path fill="#E22620" d="M1561.377 451.89c-.387-10.523-.41-21.297-.397-32.549.367.213.983.903.98 1.591-.025 10.235-.132 20.47-.583 30.957zM1561.916 490.765c-.36-8.987-.658-18.464-.919-28.416.365 1.873.939 4.219.976 6.573.113 7.116.018 14.235-.057 21.843z"/><path fill="#DB0202" d="M122.318 386.038c.49-.6 1.314-1.24 2.448-1.954-.498.589-1.307 1.252-2.448 1.954zM1047.3 349.019c.209-.275.75-.584 1.595-.977-.218.257-.74.6-1.595.977zM1045.203 349.859c.208-.289.739-.53 1.558-.814-.22.258-.728.56-1.558.814zM118.303 388.064c.186-.265.688-.584 1.48-.98-.195.257-.68.591-1.48.98zM120.288 387.034c.188-.268.694-.576 1.49-.955-.196.258-.684.586-1.49.955zM125.251 383.984c-.023-.173.226-.439.702-.86.008.153-.211.46-.702.86z"/><path fill="#E1261F" d="M57.08 242c-.005-24.32-.018-48.14-.009-71.96.002-6.715.337-7.033 7.041-7.052 3.998-.01 7.997.1 11.993.011 3.352-.074 4.92 1.387 4.85 4.768-.072 3.496.009 6.995.009 10.493 0 31.816 0 63.631-.005 95.447 0 7.079-.187 7.264-7.296 7.284-3.664.01-7.337-.154-10.991.034-4.057.209-5.7-1.44-5.644-5.544.148-10.992.052-21.987.052-33.481z"/><path fill="#E1241E" d="M913.91 126.9c-2.023-3.314-.752-5.883 1.74-8.3 5.295-5.132 10.624-10.235 15.736-15.546 2.701-2.807 4.764-2.887 7.674-.17 3.675 3.431 7.768 6.436 11.85 9.388.743.537 2.473.286 3.46-.193 4.104-1.99 8.099-4.206 12.365-6.462.41-4.66.926-9.888 1.31-15.125.287-3.897 1.808-5.735 6.158-5.538 7.815.355 15.66.152 23.49.074 4.37-.043 6.38 2.035 6.267 6.328-.017.666-.002 1.333.002 2 .085 13.588.044 13.699 12.372 18.247 1.759.65 4.528.254 6.15-.753 4-2.485 7.401-5.96 11.464-8.306 1.74-1.005 5.437-1.183 6.682-.038 5.342 4.916 9.946 10.624 15.142 15.713 2.677 2.622 2.83 5.214 1.054 7.943-2.23 3.423-4.746 6.688-7.41 9.789-1.704 1.983-2.583 3.073-1.252 6.248 4.826 11.514 5.532 12.434 17.28 12.84 8.226.286 8.495.567 8.497 8.892.001 6.999-.32 14.017.11 20.99.297 4.844-2.183 6.49-6.145 6.983-3.026.377-6.148.066-9.15.544-2.579.41-5.6-.02-6.748 3.844-.95 3.2-4.374 6.038-4.378 9.038-.003 3.066 2.684 6.22 4.46 9.174 1.449 2.412 3.953 4.38 4.75 6.933.645 2.063.235 5.348-1.084 6.97-4.48 5.511-9.51 10.583-14.446 15.71-4.15 4.31-6.438 3.791-10.326-.384-3.097-3.326-6.817-6.888-10.937-8.17-3.004-.935-7.118 1.645-10.722 2.707-4.244 1.25-6.116 3.846-5.413 8.482.443 2.927.077 5.984.013 8.98-.109 5.065-2.139 7.152-7.264 7.206-7.665.08-15.34-.215-22.992.11-4.23.18-5.708-1.522-5.636-5.409.061-3.331-.006-6.665.013-9.998.029-4.975-2.024-8.302-7.034-9.783-2.96-.875-5.748-2.335-8.85-3.63-4.407 3.504-8.942 7.376-13.758 10.861-4.448 3.219-6.142 2.557-9.37-1.436-2.68-3.315-6.13-5.994-8.951-9.207-2.526-2.878-6.196-5.108-6.788-9.22-.21-1.461.888-3.318 1.826-4.698 2.637-3.88 5.634-7.52 8.183-11.452.65-1.004.573-2.9.117-4.119-1.26-3.364-2.774-6.651-4.457-9.826-.504-.95-1.832-1.898-2.89-2.04-4.14-.555-8.34-.654-12.485-1.179-3.377-.427-5.657-1.936-5.584-5.997.168-9.322.053-18.65.053-28.858 3.752-.672 7.485-1.646 11.272-1.95 6.098-.487 10.422-2.639 13.045-8.746 2.433-5.662 2.435-8.024-2.444-12.394-1.985-1.78-3.598-3.974-5.181-6.492.048-.78-.102-1.048-.253-1.316l-.586.74m77.613 11.972c-1.09-.3-2.185-.876-3.269-.855-13.854.265-24.819 5.388-32.575 17.571-7.201 11.311-6.1 30.36 3.29 40.889 7.217 8.091 15.795 11.815 26.998 11.81 8.913-.004 16.354-2.734 22.79-7.746 14.676-11.431 16.02-32.654 6.203-46.814-2.343-3.38-6.181-6.2-9.536-9.01-4.184-3.503-8.69-3.976-13.9-5.845z"/></svg>
